<svg width="140" height="50" viewBox="0 0 140 50" fill="none" xmlns="http://www.w3.org/2000/svg">
<g clip-path="url(#clip0_3394_34473)">
<path d="M25.221 31.5454C28.8692 31.5454 31.8267 28.614 31.8267 24.9979C31.8267 21.3818 28.8692 18.4504 25.221 18.4504C21.5727 18.4504 18.6152 21.3818 18.6152 24.9979C18.6152 28.614 21.5727 31.5454 25.221 31.5454Z" fill="black"/>
<path d="M50.4148 21.6943L45.8878 20.6471C45.3467 17.9864 44.26 15.5385 42.7954 13.3887L45.1835 9.40826L40.6823 4.99787L36.7223 7.41592C34.5275 6.01958 32.0322 4.99787 29.3735 4.46147L28.2354 0L21.8873 0.0255428L20.8007 4.51682C18.1679 5.08301 15.6768 6.13027 13.5035 7.58195L9.51773 5.21498L7.26715 7.44572L5.04234 9.67646L7.15977 13.0907H25.2203C31.8646 13.0907 37.2334 18.4419 37.2334 24.9979C37.2334 26.4496 36.9886 27.8203 36.4732 29.1103H45.9394L50.4405 27.9821L50.4148 21.6901V21.6943ZM25.2203 36.9093C18.5759 36.9093 13.2071 31.5879 13.2071 25.0021C13.2071 23.5504 13.4777 22.1797 13.9674 20.8897H4.50117L0 22.0179L0.02577 28.2801L4.557 29.3572C5.09817 32.0179 6.18481 34.4657 7.62363 36.6156L5.26568 40.5662L7.51626 42.7969L9.76684 44.9766L13.7268 42.5841C15.9216 44.0102 18.417 45.0319 21.0756 45.5683L22.2138 50.0043L28.5317 49.9787L29.6184 45.5172C32.277 44.951 34.7423 43.8782 36.9413 42.4266L40.9271 44.7935L43.1519 42.5628L45.3767 40.3321L43.2593 36.9178H25.2246L25.2203 36.9093Z" fill="#DB0025"/>
<path d="M60.0703 10.298C60.0703 9.89362 60.2894 9.41256 60.7232 8.85488C61.157 8.29719 61.6938 7.76931 62.3338 7.27122C62.9694 6.77314 63.6352 6.35594 64.3267 6.00686C65.0182 5.66203 65.6152 5.48749 66.1263 5.48749H68.6732C69.1843 5.48749 69.7598 5.64074 70.4084 5.943C71.0569 6.24526 71.6625 6.61563 72.2252 7.05411C72.7878 7.49259 73.2646 7.96088 73.6597 8.46748C74.0506 8.97408 74.2481 9.42959 74.2481 9.83827V20.2129C74.2481 20.6173 74.0291 21.1026 73.5953 21.6603C73.1615 22.218 72.6246 22.7459 71.9847 23.244C71.349 23.7421 70.6833 24.1635 69.9918 24.5083C69.3003 24.8532 68.7033 25.0277 68.1922 25.0277H65.6452C65.1341 25.0277 64.5586 24.8787 63.91 24.585C63.2615 24.2912 62.6559 23.9209 62.0933 23.4739C61.5306 23.0269 61.0539 22.5501 60.6587 22.0435C60.2636 21.5369 60.0703 21.0814 60.0703 20.6727V10.298ZM69.9746 19.8808V10.1746C69.9746 9.95322 69.9231 9.73185 69.8157 9.51899C69.7083 9.30613 69.5709 9.11882 69.4034 8.95705C69.2316 8.79528 69.0426 8.66331 68.8321 8.56114C68.6174 8.45896 68.4069 8.40788 68.1965 8.40788H66.9208C66.7061 8.40788 66.4527 8.48451 66.1563 8.63776C65.86 8.79102 65.5765 8.97833 65.3102 9.1997C65.0439 9.42108 64.8163 9.65947 64.623 9.9149C64.434 10.1703 64.3352 10.4087 64.3352 10.6301V20.3364C64.3352 20.562 64.3868 20.7791 64.4942 20.992C64.6015 21.2048 64.739 21.3921 64.9065 21.5539C65.074 21.7157 65.2673 21.8476 65.4777 21.9498C65.6882 22.052 65.9029 22.1031 66.1134 22.1031H67.389C67.5995 22.1031 67.8572 22.0264 68.1535 21.8732C68.4499 21.7199 68.7333 21.5326 68.9996 21.3112C69.2659 21.0899 69.4936 20.8515 69.6868 20.596C69.8758 20.3406 69.9746 20.1022 69.9746 19.8808ZM77.2718 4.48706H81.7945V13.278H86.1582V16.1984H81.7945V29.8255L77.2718 30.9196V4.48706Z" fill="black"/>
<path d="M93.1031 22.1031H97.4368C97.6472 22.1031 97.8491 22.0946 98.0424 22.0733C98.2356 22.052 98.4461 21.9839 98.678 21.8604L104.987 18.2418V4.48706H109.51V13.8868H113.874V16.8072H109.51V29.8298L104.987 30.9238V21.5241L100.241 24.5339C99.9236 24.7553 99.5198 24.8957 99.0302 24.9426C98.5406 24.9937 98.0638 25.0192 97.5957 25.0192H88.5805V17.8715C88.5805 17.2244 88.7222 16.6837 89.01 16.258C89.2977 15.8323 89.7143 15.479 90.2684 15.1937L95.6543 12.4564C95.8047 12.3755 95.955 12.2691 96.1182 12.1371C96.2771 12.0052 96.3587 11.7582 96.3587 11.3921V8.41214H88.5547V5.49174H98.1111C98.2829 5.49174 98.4547 5.50451 98.6351 5.52154C98.8155 5.54283 98.9701 5.62371 99.0989 5.7642L100.533 7.1648C100.641 7.26697 100.727 7.38191 100.787 7.51388C100.847 7.64585 100.881 7.86297 100.881 8.16948V11.5156C100.881 12.1031 100.817 12.5799 100.692 12.946C100.564 13.3121 100.392 13.6271 100.168 13.8911C99.945 14.155 99.6788 14.3764 99.3738 14.5594C99.0646 14.7425 98.7296 14.9255 98.3688 15.1086L93.6529 17.5437C93.4639 17.6459 93.3221 17.7565 93.2405 17.88C93.1546 18.0035 93.1117 18.1737 93.1117 18.3951V22.1073L93.1031 22.1031Z" fill="black"/>
<path d="M140 24.7511V27.6715H115.854V24.7511H121.239V18.6081C120.879 18.3441 120.535 18.0589 120.204 17.7566C119.874 17.4544 119.582 17.1436 119.328 16.8286C119.075 16.5136 118.873 16.2113 118.723 15.9176C118.572 15.6238 118.499 15.3556 118.499 15.113V10.8856C118.499 10.4812 118.731 9.97461 119.199 9.36584C119.667 8.75707 120.234 8.16959 120.904 7.60339C121.574 7.03719 122.27 6.54762 122.992 6.14319C123.713 5.73877 124.332 5.53442 124.839 5.53442H131.655C132.166 5.53442 132.75 5.70045 133.407 6.03677C134.064 6.37308 134.687 6.78176 135.271 7.27133C135.855 7.75665 136.349 8.27602 136.753 8.82093C137.157 9.3701 137.359 9.85541 137.359 10.2811V14.5085C137.359 14.7511 137.286 15.0193 137.135 15.3131C136.985 15.6068 136.783 15.9176 136.53 16.2411C136.276 16.5646 135.976 16.8924 135.636 17.216C135.297 17.5395 134.936 17.8546 134.554 18.1611V24.7639H140V24.7511ZM132.991 10.6047C132.991 10.3833 132.888 10.1449 132.69 9.88947C132.488 9.63404 132.248 9.40416 131.973 9.1913C131.698 8.97844 131.406 8.79964 131.097 8.65916C130.787 8.51867 130.53 8.4463 130.315 8.4463H126.174C125.96 8.4463 125.668 8.54847 125.298 8.74856C124.925 8.9529 124.56 9.19981 124.199 9.49356C123.838 9.7873 123.524 10.0938 123.258 10.4046C122.992 10.7196 122.859 10.9878 122.859 11.2092V14.7681C122.859 14.9938 122.957 15.2279 123.159 15.4833C123.361 15.7388 123.602 15.9686 123.877 16.1815C124.151 16.3944 124.444 16.5732 124.753 16.7136C125.062 16.8541 125.32 16.9265 125.534 16.9265H129.675C129.885 16.9265 130.177 16.8243 130.551 16.6242C130.92 16.4199 131.29 16.1773 131.651 15.8963C132.011 15.6111 132.325 15.3088 132.591 14.9853C132.857 14.6617 132.991 14.3893 132.991 14.1636V10.6047ZM130.027 24.7511V19.8512H125.758V24.7511H130.027Z" fill="black"/>
<path d="M90.338 37.5651H86.0215V36.0538H91.2485C91.3344 36.0538 91.4289 36.0581 91.5191 36.0708C91.6136 36.0793 91.6909 36.1219 91.7596 36.1943L92.5026 36.918C92.5585 36.9691 92.6014 37.0287 92.6358 37.0968C92.6702 37.1649 92.6873 37.2756 92.6873 37.4331V41.9329C92.6873 42.1628 92.653 42.3884 92.58 42.6013C92.5069 42.8184 92.3394 43.027 92.0774 43.2398L87.6622 46.7179L86.4596 45.4919L90.003 42.3458C90.1447 42.2181 90.2392 42.0989 90.2821 41.9755C90.3251 41.8563 90.3466 41.7073 90.3466 41.5285V37.5608L90.338 37.5651ZM97.4763 35.5344V48.6464L95.1355 49.2126V35.5344H97.4763Z" fill="black"/>
<path d="M102.879 37.565H99.4688V36.0538H103.785C103.871 36.0538 103.966 36.058 104.056 36.0708C104.15 36.0793 104.228 36.1219 104.296 36.1942L105.039 36.918C105.095 36.969 105.138 37.0286 105.173 37.0968C105.207 37.1649 105.224 37.2756 105.224 37.4331V37.9354H106.873V35.5259H108.952V48.5272L106.873 49.0465V43.3164H104.88C104.88 43.3164 104.859 43.3505 104.846 43.3547C104.833 43.359 104.825 43.3675 104.812 43.3803L100.822 46.7179L99.6363 45.4918L102.733 42.5331C102.832 42.4395 102.883 42.3245 102.883 42.1883V37.5608L102.879 37.565ZM106.869 41.8137V39.451H105.22V41.8137H106.869ZM110.069 35.5344H112.148V48.6932L110.069 49.2126V35.5344Z" fill="black"/>
<path d="M121.111 35.9729V37.4842H118.706V38.8848L121.425 42.1585L120.158 43.1504L117.538 40.8218C117.031 41.273 116.533 41.72 116.039 42.167C115.545 42.614 115.043 43.061 114.54 43.5123L113.32 42.5502C113.539 42.2862 113.78 41.9967 114.046 41.6775C114.308 41.3582 114.57 41.0432 114.828 40.7324C115.086 40.4216 115.33 40.1321 115.562 39.8597C115.794 39.5872 115.979 39.3616 116.121 39.1828C116.219 39.0551 116.284 38.9444 116.318 38.8465C116.353 38.7486 116.365 38.6294 116.365 38.4931V37.4842H113.96V35.9729H121.116H121.111ZM115.408 46.2539C115.408 46.0453 115.519 45.7984 115.738 45.5217C115.957 45.2449 116.224 44.981 116.537 44.7341C116.851 44.4872 117.182 44.2786 117.534 44.104C117.886 43.9295 118.195 43.8443 118.457 43.8443H122.181C122.443 43.8443 122.735 43.9125 123.053 44.0487C123.371 44.1849 123.667 44.3552 123.933 44.5595C124.204 44.7639 124.432 44.9895 124.616 45.2364C124.801 45.4833 124.895 45.7175 124.895 45.9389V47.5778C124.895 47.7992 124.784 48.0461 124.565 48.3271C124.346 48.6038 124.079 48.872 123.766 49.1232C123.452 49.3744 123.122 49.583 122.769 49.7532C122.417 49.9193 122.108 50.0044 121.846 50.0044H118.122C117.86 50.0044 117.568 49.932 117.25 49.7916C116.932 49.6511 116.636 49.4723 116.37 49.2637C116.099 49.0551 115.872 48.8252 115.687 48.5783C115.498 48.3314 115.408 48.0972 115.408 47.8758V46.2539ZM122.61 46.19C122.61 45.9601 122.503 45.7643 122.288 45.5983C122.074 45.4365 121.859 45.3556 121.635 45.3556H119.144C119.033 45.3556 118.895 45.3982 118.732 45.4833C118.569 45.5685 118.41 45.6707 118.255 45.7984C118.101 45.9218 117.968 46.058 117.86 46.1985C117.753 46.339 117.697 46.471 117.697 46.5859V47.6247C117.697 47.7396 117.727 47.8503 117.787 47.9567C117.847 48.0632 117.929 48.1526 118.028 48.2334C118.126 48.3101 118.234 48.3739 118.35 48.4208C118.466 48.4676 118.577 48.4931 118.689 48.4931H121.163C121.275 48.4931 121.412 48.4506 121.575 48.3654C121.739 48.2803 121.897 48.1781 122.052 48.0504C122.207 47.9227 122.336 47.7864 122.447 47.6417C122.559 47.4927 122.61 47.365 122.61 47.25V46.1943V46.19ZM124.9 35.5344V38.3995H126.991V39.9108H124.9V43.2781H122.559V35.5344H124.9Z" fill="black"/>
<path d="M130.899 44.4914H133.833C133.945 44.4914 134.048 44.4829 134.146 44.4659C134.245 44.4489 134.357 44.4148 134.477 44.3637L135.912 43.7039L136.62 44.8831L135.285 45.7473C135.121 45.8622 134.911 45.9346 134.657 45.9601C134.404 45.9857 134.159 45.9985 133.914 45.9985H128.559V36.0495H135.302V37.5608H130.899V40.1747H134.181V41.686H130.899V44.4872V44.4914ZM135.053 41.5795V40.0683H137.655V35.5344H139.996V48.6464L137.655 49.2126V41.5795H135.053Z" fill="black"/>
<path d="M60.0703 10.298C60.0703 9.89362 60.2894 9.41256 60.7232 8.85488C61.157 8.29719 61.6938 7.76931 62.3338 7.27122C62.9694 6.77314 63.6352 6.35594 64.3267 6.00686C65.0182 5.66203 65.6152 5.48749 66.1263 5.48749H68.6732C69.1843 5.48749 69.7598 5.64074 70.4084 5.943C71.0569 6.24526 71.6625 6.61563 72.2252 7.05411C72.7878 7.49259 73.2646 7.96088 73.6597 8.46748C74.0506 8.97408 74.2481 9.42959 74.2481 9.83827V20.2129C74.2481 20.6173 74.0291 21.1026 73.5953 21.6603C73.1615 22.218 72.6246 22.7459 71.9847 23.244C71.349 23.7421 70.6833 24.1635 69.9918 24.5083C69.3003 24.8532 68.7033 25.0277 68.1922 25.0277H65.6452C65.1341 25.0277 64.5586 24.8787 63.91 24.585C63.2615 24.2912 62.6559 23.9209 62.0933 23.4739C61.5306 23.0269 61.0539 22.5501 60.6587 22.0435C60.2636 21.5369 60.0703 21.0814 60.0703 20.6727V10.298ZM69.9746 19.8808V10.1746C69.9746 9.95322 69.9231 9.73185 69.8157 9.51899C69.7083 9.30613 69.5709 9.11882 69.4034 8.95705C69.2316 8.79528 69.0426 8.66331 68.8321 8.56114C68.6174 8.45896 68.4069 8.40788 68.1965 8.40788H66.9208C66.7061 8.40788 66.4527 8.48451 66.1563 8.63776C65.86 8.79102 65.5765 8.97833 65.3102 9.1997C65.0439 9.42108 64.8163 9.65947 64.623 9.9149C64.434 10.1703 64.3352 10.4087 64.3352 10.6301V20.3364C64.3352 20.562 64.3868 20.7791 64.4942 20.992C64.6015 21.2048 64.739 21.3921 64.9065 21.5539C65.074 21.7157 65.2673 21.8476 65.4777 21.9498C65.6882 22.052 65.9029 22.1031 66.1134 22.1031H67.389C67.5995 22.1031 67.8572 22.0264 68.1535 21.8732C68.4499 21.7199 68.7333 21.5326 68.9996 21.3112C69.2659 21.0899 69.4936 20.8515 69.6868 20.596C69.8758 20.3406 69.9746 20.1022 69.9746 19.8808ZM77.2718 4.48706H81.7945V13.278H86.1582V16.1984H81.7945V29.8255L77.2718 30.9196V4.48706Z" fill="black"/>
<path d="M93.1031 22.1031H97.4368C97.6472 22.1031 97.8491 22.0946 98.0424 22.0733C98.2356 22.052 98.4461 21.9839 98.678 21.8604L104.987 18.2418V4.48706H109.51V13.8868H113.874V16.8072H109.51V29.8298L104.987 30.9238V21.5241L100.241 24.5339C99.9236 24.7553 99.5198 24.8957 99.0302 24.9426C98.5406 24.9937 98.0638 25.0192 97.5957 25.0192H88.5805V17.8715C88.5805 17.2244 88.7222 16.6837 89.01 16.258C89.2977 15.8323 89.7143 15.479 90.2684 15.1937L95.6543 12.4564C95.8047 12.3755 95.955 12.2691 96.1182 12.1371C96.2771 12.0052 96.3587 11.7582 96.3587 11.3921V8.41214H88.5547V5.49174H98.1111C98.2829 5.49174 98.4547 5.50451 98.6351 5.52154C98.8155 5.54283 98.9701 5.62371 99.0989 5.7642L100.533 7.1648C100.641 7.26697 100.727 7.38191 100.787 7.51388C100.847 7.64585 100.881 7.86297 100.881 8.16948V11.5156C100.881 12.1031 100.817 12.5799 100.692 12.946C100.564 13.3121 100.392 13.6271 100.168 13.8911C99.945 14.155 99.6788 14.3764 99.3738 14.5594C99.0646 14.7425 98.7296 14.9255 98.3688 15.1086L93.6529 17.5437C93.4639 17.6459 93.3221 17.7565 93.2405 17.88C93.1546 18.0035 93.1117 18.1737 93.1117 18.3951V22.1073L93.1031 22.1031Z" fill="black"/>
<path d="M140 24.7511V27.6715H115.854V24.7511H121.239V18.6081C120.879 18.3441 120.535 18.0589 120.204 17.7566C119.874 17.4544 119.582 17.1436 119.328 16.8286C119.075 16.5136 118.873 16.2113 118.723 15.9176C118.572 15.6238 118.499 15.3556 118.499 15.113V10.8856C118.499 10.4812 118.731 9.97461 119.199 9.36584C119.667 8.75707 120.234 8.16959 120.904 7.60339C121.574 7.03719 122.27 6.54762 122.992 6.14319C123.713 5.73877 124.332 5.53442 124.839 5.53442H131.655C132.166 5.53442 132.75 5.70045 133.407 6.03677C134.064 6.37308 134.687 6.78176 135.271 7.27133C135.855 7.75665 136.349 8.27602 136.753 8.82093C137.157 9.3701 137.359 9.85541 137.359 10.2811V14.5085C137.359 14.7511 137.286 15.0193 137.135 15.3131C136.985 15.6068 136.783 15.9176 136.53 16.2411C136.276 16.5646 135.976 16.8924 135.636 17.216C135.297 17.5395 134.936 17.8546 134.554 18.1611V24.7639H140V24.7511ZM132.991 10.6047C132.991 10.3833 132.888 10.1449 132.69 9.88947C132.488 9.63404 132.248 9.40416 131.973 9.1913C131.698 8.97844 131.406 8.79964 131.097 8.65916C130.787 8.51867 130.53 8.4463 130.315 8.4463H126.174C125.96 8.4463 125.668 8.54847 125.298 8.74856C124.925 8.9529 124.56 9.19981 124.199 9.49356C123.838 9.7873 123.524 10.0938 123.258 10.4046C122.992 10.7196 122.859 10.9878 122.859 11.2092V14.7681C122.859 14.9938 122.957 15.2279 123.159 15.4833C123.361 15.7388 123.602 15.9686 123.877 16.1815C124.151 16.3944 124.444 16.5732 124.753 16.7136C125.062 16.8541 125.32 16.9265 125.534 16.9265H129.675C129.885 16.9265 130.177 16.8243 130.551 16.6242C130.92 16.4199 131.29 16.1773 131.651 15.8963C132.011 15.6111 132.325 15.3088 132.591 14.9853C132.857 14.6617 132.991 14.3893 132.991 14.1636V10.6047ZM130.027 24.7511V19.8512H125.758V24.7511H130.027Z" fill="black"/>
</g>
<defs>
<clipPath id="clip0_3394_34473">
<rect width="140" height="50" fill="white"/>
</clipPath>
</defs>
</svg>
