<svg width="16" height="16" viewBox="0 0 16 16" fill="none" xmlns="http://www.w3.org/2000/svg">
<path d="M8 8H3.33333C2.97971 8 2.64057 8.14048 2.39052 8.39052C2.14048 8.64057 2 8.97971 2 9.33333V12.6667" stroke="currentColor" stroke-linecap="round" stroke-linejoin="round"/>
<path d="M8.66665 14C9.40303 14 9.99998 13.4031 9.99998 12.6667C9.99998 11.9303 9.40303 11.3334 8.66665 11.3334C7.93027 11.3334 7.33331 11.9303 7.33331 12.6667C7.33331 13.4031 7.93027 14 8.66665 14Z" stroke="currentColor" stroke-linecap="round" stroke-linejoin="round"/>
<path d="M3.33333 14C4.06971 14 4.66667 13.4031 4.66667 12.6667C4.66667 11.9303 4.06971 11.3334 3.33333 11.3334C2.59695 11.3334 2 11.9303 2 12.6667C2 13.4031 2.59695 14 3.33333 14Z" stroke="currentColor" stroke-linecap="round" stroke-linejoin="round"/>
<path d="M5.33333 12.6667H7.33333M10.6667 1.33337V12.6667H14.6667M4 8.00004V4.66671C4 3.93337 4.6 3.33337 5.33333 3.33337H7.33333L10.6667 6.66671" stroke="currentColor" stroke-linecap="round" stroke-linejoin="round"/>
</svg>
