<svg width="16" height="16" viewBox="0 0 16 16" fill="none" xmlns="http://www.w3.org/2000/svg">
<path d="M12.6667 11.3333V3.33333C12.6667 2.97971 12.5262 2.64057 12.2762 2.39052C12.0261 2.14048 11.687 2 11.3334 2H2.66669" stroke="currentColor" stroke-linecap="round" stroke-linejoin="round"/>
<path d="M5.33331 14H13.3333C13.6869 14 14.0261 13.8595 14.2761 13.6095C14.5262 13.3594 14.6666 13.0203 14.6666 12.6667V12C14.6666 11.8232 14.5964 11.6536 14.4714 11.5286C14.3464 11.4036 14.1768 11.3333 14 11.3333H7.33331C7.1565 11.3333 6.98693 11.4036 6.86191 11.5286C6.73688 11.6536 6.66665 11.8232 6.66665 12V12.6667C6.66665 13.0203 6.52617 13.3594 6.27612 13.6095C6.02607 13.8595 5.68693 14 5.33331 14ZM5.33331 14C4.97969 14 4.64055 13.8595 4.3905 13.6095C4.14046 13.3594 3.99998 13.0203 3.99998 12.6667V3.33333C3.99998 2.97971 3.8595 2.64057 3.60946 2.39052C3.35941 2.14048 3.02027 2 2.66665 2C2.31302 2 1.97389 2.14048 1.72384 2.39052C1.47379 2.64057 1.33331 2.97971 1.33331 3.33333V4.66667C1.33331 4.84348 1.40355 5.01305 1.52858 5.13807C1.6536 5.2631 1.82317 5.33333 1.99998 5.33333H3.99998" stroke="currentColor" stroke-linecap="round" stroke-linejoin="round"/>
</svg>
