<svg width="16" height="16" viewBox="0 0 16 16" fill="none" xmlns="http://www.w3.org/2000/svg">
<g clip-path="url(#clip0_2031_3365)">
<path d="M9.79999 4.20006C9.67783 4.32468 9.60941 4.49223 9.60941 4.66673C9.60941 4.84123 9.67783 5.00877 9.79999 5.13339L10.8667 6.20006C10.9913 6.32221 11.1588 6.39063 11.3333 6.39063C11.5078 6.39063 11.6754 6.32221 11.8 6.20006L13.8707 4.13006C14.084 3.91539 14.446 3.98339 14.526 4.27539C14.7274 5.00798 14.716 5.78277 14.4932 6.50912C14.2703 7.23547 13.8452 7.88333 13.2676 8.37689C12.69 8.87044 11.9837 9.18929 11.2315 9.2961C10.4793 9.40292 9.71218 9.2933 9.01999 8.98006L3.74665 14.2534C3.48144 14.5185 3.12176 14.6674 2.74675 14.6674C2.37174 14.6673 2.01211 14.5183 1.74699 14.2531C1.48186 13.9878 1.33295 13.6282 1.33301 13.2532C1.33307 12.8781 1.4821 12.5185 1.74732 12.2534L7.02065 6.98006C6.70741 6.28787 6.59779 5.52078 6.70461 4.76856C6.81143 4.01634 7.13027 3.31009 7.62383 2.73247C8.11738 2.15485 8.76524 1.72973 9.49159 1.50688C10.2179 1.28402 10.9927 1.27264 11.7253 1.47406C12.0173 1.55406 12.0853 1.91539 11.8713 2.13006L9.79999 4.20006Z" stroke="currentColor" stroke-linecap="round" stroke-linejoin="round"/>
</g>
<defs>
<clipPath id="clip0_2031_3365">
<rect width="16" height="16" fill="white"/>
</clipPath>
</defs>
</svg>
