<svg width="20" height="20" viewBox="0 0 20 20" fill="none" xmlns="http://www.w3.org/2000/svg">
<path d="M8.3335 10H11.6668" stroke="black" stroke-width="1.5" stroke-linecap="round" stroke-linejoin="round"/>
<path d="M8.3335 6.66602H11.6668" stroke="black" stroke-width="1.5" stroke-linecap="round" stroke-linejoin="round"/>
<path d="M11.6668 17.5007V15.0007C11.6668 14.5586 11.4912 14.1347 11.1787 13.8221C10.8661 13.5096 10.4422 13.334 10.0002 13.334C9.55814 13.334 9.13421 13.5096 8.82165 13.8221C8.50909 14.1347 8.3335 14.5586 8.3335 15.0007V17.5007" stroke="black" stroke-width="1.5" stroke-linecap="round" stroke-linejoin="round"/>
<path d="M4.99984 8.33398H3.33317C2.89114 8.33398 2.46722 8.50958 2.15466 8.82214C1.8421 9.1347 1.6665 9.55862 1.6665 10.0007V15.834C1.6665 16.276 1.8421 16.6999 2.15466 17.0125C2.46722 17.3251 2.89114 17.5007 3.33317 17.5007H16.6665C17.1085 17.5007 17.5325 17.3251 17.845 17.0125C18.1576 16.6999 18.3332 16.276 18.3332 15.834V7.50065C18.3332 7.05862 18.1576 6.6347 17.845 6.32214C17.5325 6.00958 17.1085 5.83398 16.6665 5.83398H14.9998" stroke="black" stroke-width="1.5" stroke-linecap="round" stroke-linejoin="round"/>
<path d="M5 17.5V4.16667C5 3.72464 5.17559 3.30072 5.48816 2.98816C5.80072 2.67559 6.22464 2.5 6.66667 2.5H13.3333C13.7754 2.5 14.1993 2.67559 14.5118 2.98816C14.8244 3.30072 15 3.72464 15 4.16667V17.5" stroke="black" stroke-width="1.5" stroke-linecap="round" stroke-linejoin="round"/>
</svg>
