<svg width="20" height="20" viewBox="0 0 20 20" fill="none" xmlns="http://www.w3.org/2000/svg">
<path d="M11.1668 1.66602H5.00016C4.55814 1.66602 4.13421 1.84161 3.82165 2.15417C3.50909 2.46673 3.3335 2.89065 3.3335 3.33268V16.666C3.3335 17.108 3.50909 17.532 3.82165 17.8445C4.13421 18.1571 4.55814 18.3327 5.00016 18.3327H15.0002C15.4422 18.3327 15.8661 18.1571 16.1787 17.8445C16.4912 17.532 16.6668 17.108 16.6668 16.666V10.4993" stroke="#1B1B1B" stroke-width="1.5" stroke-linecap="round" stroke-linejoin="round"/>
<path d="M1.6665 5H4.99984" stroke="#1B1B1B" stroke-width="1.5" stroke-linecap="round" stroke-linejoin="round"/>
<path d="M1.6665 8.33398H4.99984" stroke="#1B1B1B" stroke-width="1.5" stroke-linecap="round" stroke-linejoin="round"/>
<path d="M1.6665 11.666H4.99984" stroke="#1B1B1B" stroke-width="1.5" stroke-linecap="round" stroke-linejoin="round"/>
<path d="M1.6665 15H4.99984" stroke="#1B1B1B" stroke-width="1.5" stroke-linecap="round" stroke-linejoin="round"/>
<path d="M17.8151 4.68781C18.1471 4.35584 18.3336 3.90561 18.3336 3.43614C18.3336 2.96667 18.1471 2.51644 17.8151 2.18447C17.4832 1.85251 17.0329 1.66602 16.5635 1.66602C16.094 1.66602 15.6438 1.85251 15.3118 2.18447L11.1368 6.36114C10.9387 6.55916 10.7937 6.80392 10.7151 7.07281L10.0176 9.46447C9.99673 9.53618 9.99547 9.61219 10.014 9.68455C10.0326 9.75691 10.0702 9.82295 10.123 9.87577C10.1758 9.92858 10.2419 9.96623 10.3142 9.98477C10.3866 10.0033 10.4626 10.0021 10.5343 9.98114L12.926 9.28364C13.1949 9.20512 13.4396 9.0601 13.6376 8.86197L17.8151 4.68781Z" stroke="#1B1B1B" stroke-width="1.5" stroke-linecap="round" stroke-linejoin="round"/>
</svg>
