<svg width="24" height="24" viewBox="0 0 24 24" fill="none" xmlns="http://www.w3.org/2000/svg">
<path d="M16.6761 20.0291C16.5052 20.0184 16.4341 19.8089 16.5636 19.6977C17.2426 19.1199 17.5472 18.4683 18.0571 17.5537C18.0944 17.487 18.1817 17.4656 18.2461 17.5078C18.5826 17.7298 18.9642 17.8619 19.3862 17.9041C19.4561 17.9113 19.5 17.9779 19.4807 18.0434C19.0527 19.4596 18.1173 20.1219 16.6755 20.0285L16.6761 20.0291ZM20.7804 12.2379L20.7551 15.7893C20.7515 16.3492 20.2904 16.7979 19.7233 16.7949H19.6306C19.0642 16.7914 18.6097 16.3332 18.6133 15.7744L18.638 12.2231C18.6416 11.6631 19.1033 11.2138 19.6698 11.2174H19.7625C20.3289 11.221 20.784 11.6792 20.7804 12.2379ZM4.38445 16.7682L4.27067 16.7694C3.68255 16.7741 3.20337 16.3076 3.19735 15.7268L3.16665 12.2183C3.16063 11.6381 3.63318 11.1627 4.22131 11.1579L4.33508 11.1567C4.92321 11.1519 5.40238 11.6185 5.4084 12.1993L5.4391 15.7078C5.44512 16.2879 4.97257 16.7634 4.38445 16.7682ZM5.35724 10.2106C5.35362 10.235 5.33255 10.2528 5.30908 10.2492L3.92815 10.0677C3.89986 10.0642 3.87819 10.038 3.87999 10.0094C4.0335 8.62828 4.38986 7.4554 4.94729 6.4914C6.42634 3.93738 8.96908 2.40509 12.006 2.39616C15.0406 2.38902 17.5923 3.9112 19.0822 6.45629C19.6451 7.41791 20.0069 8.5896 20.1676 9.96896C20.1712 9.99871 20.1495 10.0255 20.1194 10.0285L18.7403 10.2153C18.7174 10.2189 18.6958 10.2028 18.6921 10.1784C18.4068 7.78804 17.2932 6.03201 15.3524 4.90972C14.3688 4.33905 13.2533 4.0552 12.0096 4.05877C10.7642 4.06234 9.65231 4.35095 8.66989 4.92578C6.73455 6.05819 5.62993 7.81958 5.35724 10.2106ZM6.52988 11.7976C6.38541 10.4325 6.61897 9.17455 7.22696 8.0225C8.61873 5.3822 11.8297 4.56279 14.4741 5.76601C16.5822 6.72585 17.6796 9.10611 17.5303 11.3322C17.5267 11.3852 17.4701 11.4167 17.4238 11.3918C16.3192 10.7979 15.5438 9.93504 15.0984 8.79906C14.8118 8.06653 14.4121 7.89873 13.9191 8.53842C12.171 10.8056 9.51025 11.9029 6.63643 11.8904C6.58285 11.8904 6.5365 11.85 6.53108 11.797L6.52988 11.7976ZM6.62078 16.7241C6.60091 16.6611 6.59248 16.5956 6.59248 16.5307L6.57262 13.1871C6.57262 13.1305 6.61897 13.0853 6.67616 13.0829C9.51326 13.0371 12.2679 12.0124 14.2261 9.98621C14.258 9.95289 14.3152 9.95825 14.3399 9.99871C15.0779 11.1704 16.0772 12.0207 17.3371 12.5474C17.3943 12.5706 17.4316 12.6247 17.4334 12.6848C17.5225 14.686 17.608 16.8717 16.197 18.5135C16.1344 18.5837 16.0561 18.6385 15.967 18.6742C15.716 18.7712 15.4126 18.8259 15.0616 18.8378C15.0027 18.8396 14.9461 18.8098 14.9154 18.7587C14.258 17.6911 13.8408 17.6667 12.5508 17.6209C11.5618 17.587 10.5408 17.9291 10.4162 18.961C10.359 19.4347 10.48 19.831 10.778 20.1499C11.4354 20.8509 12.419 20.8426 13.3009 20.6748C13.8944 20.5635 14.3272 20.354 14.5963 20.0494C14.6854 19.9488 14.8118 19.8923 14.9473 19.8923H15.0773C15.1965 19.8923 15.2591 20.0315 15.179 20.1178C13.7963 21.6447 12.1571 22.0256 10.2627 21.2573C8.28463 20.4576 7.25104 18.8265 6.62078 16.7229V16.7241ZM13.6259 19.1907C13.6277 19.3936 13.4616 19.5608 13.2569 19.562L11.9561 19.5733C11.7508 19.5751 11.5816 19.4108 11.5804 19.2085V19.1734C11.5786 18.9705 11.7442 18.8033 11.9494 18.8021L13.2503 18.7908C13.4556 18.789 13.6247 18.9532 13.6259 19.1556V19.1907ZM10.1483 22.4742C10.1857 22.4778 10.359 22.5213 10.8207 22.6343C11.7394 22.8587 12.9066 22.7765 13.7656 22.5706C13.83 22.5552 13.892 22.5332 13.9528 22.5064C14.1394 22.4231 14.5789 22.18 14.9154 21.939C14.9888 21.886 14.9996 21.8759 15.1038 21.7825L15.7407 21.1758C15.7762 21.1371 15.8298 21.1175 15.8833 21.1246C16.2397 21.174 16.4287 21.2002 16.4522 21.202C18.6795 21.4364 20.2958 19.9779 20.6985 17.8869C20.7112 17.8202 20.7521 17.7601 20.8111 17.725C21.5894 17.2531 21.9837 16.4528 21.9928 15.3275C21.9946 15.0687 21.9982 14.0701 22 12.3278C22.0018 11.7167 21.7773 11.3799 21.4137 10.7705C21.3782 10.7122 21.3601 10.6473 21.3601 10.5819C21.3456 7.34413 19.6427 4.18076 16.82 2.50387C13.3725 0.453278 8.75718 0.915048 5.77079 3.63092C3.81438 5.40838 2.76092 7.71247 2.61103 10.5432C2.60923 10.5962 2.59177 10.6473 2.56107 10.6931C2.20289 11.2269 2.0211 11.6447 2.01568 11.944C2.00725 12.4248 2.00184 13.5393 2.00003 15.2924C1.99822 15.9071 2.07829 16.3653 2.24082 16.67C2.77898 17.6881 3.96427 18.1743 5.05083 17.7976C5.35904 17.6899 5.51435 17.637 5.51616 17.637C5.57996 17.6215 5.64438 17.6566 5.66545 17.7179C6.27464 19.4829 7.2673 20.9497 8.80714 21.8607C9.45246 22.2428 10.1116 22.4629 10.1116 22.4629" fill="#1B1B1B"/>
</svg>
