<svg width="20" height="20" viewBox="0 0 20 20" fill="none" xmlns="http://www.w3.org/2000/svg">
<path d="M15.1885 4.35435L13.0885 2.25436C12.9021 2.06729 12.6805 1.91899 12.4365 1.81801C12.1925 1.71703 11.9309 1.66537 11.6668 1.66602H5.00016C4.55814 1.66602 4.13421 1.84162 3.82165 2.15418C3.50909 2.46674 3.3335 2.89066 3.3335 3.33269V16.666C3.3335 17.1081 3.50909 17.532 3.82165 17.8445C4.13421 18.1571 4.55814 18.3327 5.00016 18.3327H15.0002C15.4422 18.3327 15.8661 18.1571 16.1787 17.8445C16.4912 17.532 16.6668 17.1081 16.6668 16.666V16.3735" stroke="black" stroke-width="1.5" stroke-linecap="round" stroke-linejoin="round"/>
<path d="M17.8148 10.5218C18.1468 10.1898 18.3333 9.73959 18.3333 9.27012C18.3333 8.80066 18.1468 8.35042 17.8148 8.01846C17.4829 7.68649 17.0326 7.5 16.5632 7.5C16.0937 7.5 15.6434 7.68649 15.3115 8.01846L11.9698 11.3618C11.7717 11.5598 11.6267 11.8046 11.5482 12.0735L10.8507 14.4651C10.8297 14.5368 10.8285 14.6128 10.847 14.6852C10.8656 14.7576 10.9032 14.8236 10.956 14.8764C11.0088 14.9292 11.0749 14.9669 11.1472 14.9854C11.2196 15.004 11.2956 15.0027 11.3673 14.9818L13.759 14.2843C14.0279 14.2058 14.2726 14.0608 14.4707 13.8626L17.8148 10.5218Z" stroke="black" stroke-width="1.5" stroke-linecap="round" stroke-linejoin="round"/>
<path d="M6.6665 15H7.49984" stroke="black" stroke-width="1.5" stroke-linecap="round" stroke-linejoin="round"/>
</svg>
