<svg width="20" height="20" viewBox="0 0 20 20" fill="none" xmlns="http://www.w3.org/2000/svg">
<path d="M17.6448 5.67633C18.0854 5.23585 18.3329 4.63839 18.333 4.01538C18.3331 3.39237 18.0857 2.79484 17.6452 2.35425C17.2047 1.91366 16.6073 1.66609 15.9842 1.66602C15.3612 1.66594 14.7637 1.91335 14.3231 2.35383L3.20145 13.478C3.00797 13.6709 2.86488 13.9084 2.78478 14.1697L1.68395 17.7963C1.66241 17.8684 1.66079 17.945 1.67924 18.0179C1.6977 18.0908 1.73555 18.1574 1.78878 18.2105C1.84201 18.2636 1.90863 18.3014 1.98158 18.3197C2.05453 18.3381 2.13108 18.3363 2.20312 18.3147L5.83062 17.2147C6.09159 17.1353 6.32909 16.9931 6.52228 16.8005L17.6448 5.67633Z" stroke="black" stroke-width="1.5" stroke-linecap="round" stroke-linejoin="round"/>
<path d="M12.5 4.16602L15.8333 7.49935" stroke="black" stroke-width="1.5" stroke-linecap="round" stroke-linejoin="round"/>
</svg>
