<svg width="20" height="20" viewBox="0 0 20 20" fill="none" xmlns="http://www.w3.org/2000/svg">
<path d="M15 17.5V8.33333C15 8.11232 14.9122 7.90036 14.7559 7.74408C14.5996 7.5878 14.3877 7.5 14.1667 7.5H5.83333C5.61232 7.5 5.40036 7.5878 5.24408 7.74408C5.0878 7.90036 5 8.11232 5 8.33333V17.5" stroke="black" stroke-width="1.5" stroke-linecap="round" stroke-linejoin="round"/>
<path d="M18.3332 15.833C18.3332 16.275 18.1576 16.699 17.845 17.0115C17.5325 17.3241 17.1085 17.4997 16.6665 17.4997H3.33317C2.89114 17.4997 2.46722 17.3241 2.15466 17.0115C1.8421 16.699 1.6665 16.275 1.6665 15.833V6.66634C1.66632 6.35248 1.75476 6.04495 1.92165 5.77914C2.08853 5.51333 2.32708 5.30005 2.60984 5.16384L9.23484 1.85217C9.47144 1.72985 9.73391 1.66602 10.0003 1.66602C10.2666 1.66602 10.5291 1.72985 10.7657 1.85217L17.389 5.16384C17.6719 5.29993 17.9106 5.51317 18.0777 5.77898C18.2447 6.0448 18.3333 6.35239 18.3332 6.66634V15.833Z" stroke="black" stroke-width="1.5" stroke-linecap="round" stroke-linejoin="round"/>
<path d="M5 10.834H15" stroke="black" stroke-width="1.5" stroke-linecap="round" stroke-linejoin="round"/>
<path d="M5 14.166H15" stroke="black" stroke-width="1.5" stroke-linecap="round" stroke-linejoin="round"/>
</svg>
