<svg width="40" height="40" viewBox="0 0 40 40" fill="none" xmlns="http://www.w3.org/2000/svg">
<path d="M19.9824 3.47681C20.8374 3.47681 21.6773 3.70361 22.416 4.13403C23.1531 4.56351 23.7631 5.18055 24.1846 5.92212L37.5186 29.2561H37.5176C37.9394 29.9891 38.1629 30.8195 38.1631 31.6653C38.1633 32.5133 37.9402 33.3467 37.5166 34.0813C37.093 34.8159 36.4831 35.4263 35.749 35.8508C35.015 36.2753 34.1819 36.4994 33.334 36.5002H6.66603V36.4993C5.81864 36.5045 4.98492 36.2872 4.24806 35.8684C3.50724 35.4473 2.89032 34.8379 2.46095 34.1018C2.03171 33.3658 1.80463 32.529 1.80275 31.677C1.80094 30.8252 2.02431 29.988 2.45021 29.2502L15.7803 5.92212C16.2017 5.18043 16.8127 4.56356 17.5498 4.13403C18.2884 3.70377 19.1277 3.47686 19.9824 3.47681ZM19.9824 6.47681C19.6582 6.47686 19.3397 6.56261 19.0596 6.72583C18.7794 6.88911 18.5476 7.12435 18.3877 7.40649L18.3848 7.4104L5.05177 30.7444L5.04884 30.7502C4.88721 31.0302 4.80203 31.3479 4.80275 31.6711C4.80352 31.9942 4.89002 32.311 5.05275 32.5901C5.21561 32.8693 5.44948 33.1013 5.73048 33.261C6.01131 33.4205 6.32938 33.5031 6.65235 33.5002H33.3311C33.6527 33.4999 33.9686 33.4142 34.2471 33.2532C34.5255 33.0921 34.7573 32.8609 34.918 32.5823C35.0785 32.3037 35.1632 31.9877 35.1631 31.6663C35.163 31.3447 35.0778 31.0288 34.917 30.7502L34.9141 30.7444L21.5801 7.4104L21.5781 7.40649C21.4182 7.12435 21.1855 6.88911 20.9053 6.72583C20.6252 6.56273 20.3066 6.47681 19.9824 6.47681Z" fill="#FF0000"/>
<path d="M18.5 21.667V15C18.5 14.1716 19.1716 13.5 20 13.5C20.8284 13.5 21.5 14.1716 21.5 15V21.667C21.4998 22.4953 20.8283 23.167 20 23.167C19.1717 23.167 18.5002 22.4953 18.5 21.667Z" fill="#FF0000"/>
<path d="M20.0166 26.8333C20.845 26.8333 21.5166 27.5048 21.5166 28.3333C21.5166 29.1617 20.845 29.8333 20.0166 29.8333H20C19.1716 29.8333 18.5 29.1617 18.5 28.3333C18.5 27.5048 19.1716 26.8333 20 26.8333H20.0166Z" fill="#FF0000"/>
</svg>
