<svg width="12" height="12" viewBox="0 0 12 12" fill="none" xmlns="http://www.w3.org/2000/svg">
<path d="M11.5999 4.44501C11.5999 2.23897 11.5999 1.91622 11.5381 1.78145C11.4183 1.47644 11.2294 1.28137 10.9317 1.13241C10.7646 1.05438 10.6956 1.04729 9.88211 1.0331L9.21752 1.02246H4.35476C3.44321 1.02246 3.27253 1.05793 2.97473 1.32748C2.80041 1.47644 2.74957 1.55092 2.64062 1.81692C2.61883 1.86302 2.59704 2.17513 2.58252 2.51561L2.57525 2.79225C2.57525 2.98377 2.4082 3.13628 2.21209 3.14338L1.88887 3.15402C1.3405 3.17175 1.18797 3.18594 1.06812 3.24978C0.853857 3.34908 0.628696 3.57607 0.519746 3.79951L0.46164 3.913C0.43985 3.96266 0.425324 4.01586 0.425324 4.07261L0.399902 6.51981C0.399902 8.39601 0.399902 9.09116 0.43985 9.20465C0.50522 9.421 0.694065 9.69055 0.864752 9.80759C1.14802 10.0062 2.33556 10.0381 3.20716 10.0381H3.80275C3.93349 10.0381 4.0497 10.1055 4.11507 10.2155L4.20586 10.3573C4.31844 10.5347 4.46007 10.7262 4.52907 10.7936C4.75787 11.0099 5.16824 11.0418 5.44788 10.8574C5.50235 10.829 5.65851 10.6269 5.79652 10.4176L5.93452 10.2084C6.00715 10.1055 6.12336 10.0417 6.24684 10.0417H6.83516C7.77939 10.0417 8.72725 10.0062 9.04683 9.72247C9.35915 9.44228 9.3991 9.32169 9.42089 8.56979L9.42815 8.27542C9.43542 8.08035 9.59521 7.9243 9.79132 7.92075L10.1145 7.91011C10.8917 7.88883 10.9861 7.86401 11.2767 7.57318C11.6108 7.24334 11.6035 7.32846 11.5999 4.44146V4.44501ZM8.74177 6.63331L8.73451 8.95638C8.73451 9.05924 8.69093 9.16209 8.61103 9.22948L8.58561 9.25076L8.53477 9.29332C8.46214 9.35361 8.37861 9.38553 8.28782 9.38553H6.68627C5.83646 9.38553 5.73841 9.39617 5.65851 9.45292C5.57862 9.5203 5.4043 9.77212 5.22998 10.0842C5.13556 10.2474 5.0484 10.3289 4.99029 10.297C4.97213 10.2828 4.84866 10.102 4.70702 9.88916C4.57265 9.67636 4.42012 9.47065 4.38018 9.44582C4.30754 9.39617 4.12596 9.38553 3.37058 9.38553C2.49536 9.38553 1.41676 9.38198 1.30781 9.30396C1.06812 9.13726 1.07539 9.23302 1.07539 6.58011C1.07539 3.92719 1.07539 4.0194 1.28965 3.87399C1.38044 3.82079 1.64192 3.81015 4.00612 3.81015C6.37031 3.81015 8.44761 3.82079 8.54203 3.87399C8.7563 4.0194 8.7563 3.93783 8.74177 6.63331ZM10.8772 7.01635C10.8191 7.1192 10.7682 7.18304 10.6484 7.21496C10.5322 7.24688 10.3506 7.25043 10.0201 7.25043H9.80221C9.59521 7.25043 9.42815 7.08728 9.42815 6.88867V5.6828C9.42815 4.58333 9.41363 4.06197 9.38457 3.94847C9.32647 3.74276 9.14852 3.49095 8.98146 3.36682C8.78898 3.2214 6.26136 3.15047 5.04477 3.15047C4.4637 3.15047 3.94075 3.14692 3.6248 3.13628C3.41779 3.13274 3.258 2.96959 3.26163 2.77452V2.51561L3.2689 2.10774C3.2689 2.00489 3.31974 1.90913 3.39237 1.84174L3.47227 1.77436C3.53764 1.72116 3.62843 1.68924 3.71922 1.68924H9.66421C10.6702 1.68569 10.7065 1.69278 10.8554 1.9375C10.928 2.04745 10.928 2.18223 10.928 4.48402C10.928 6.53045 10.928 6.93123 10.8735 7.0199H10.8772V7.01635Z" fill="currentColor"/>
<path d="M10.9318 4.48025C10.9318 6.52668 10.9318 6.92746 10.8773 7.01612C10.8192 7.11898 10.7684 7.18282 10.6485 7.21474C10.5323 7.24666 10.3507 7.2502 10.0203 7.2502H9.80236C9.59535 7.2502 9.4283 7.08706 9.4283 6.88844V5.68257C9.4283 4.5831 9.41377 4.06174 9.38472 3.94825C9.32661 3.74254 9.14866 3.49072 8.98161 3.36659C8.78913 3.22118 6.26151 3.15024 5.04491 3.15024C4.46385 3.15024 3.9409 3.1467 3.62494 3.13606C3.41794 3.13251 3.25815 2.96936 3.26178 2.77429V2.51539L3.26904 2.10752C3.26904 2.00467 3.31989 1.90891 3.39252 1.84152L3.47241 1.77413C3.53778 1.72093 3.62857 1.68901 3.71937 1.68901H9.66436C10.6703 1.68546 10.7066 1.69256 10.8555 1.93728C10.9282 2.04723 10.9282 2.182 10.9282 4.48379H10.9318V4.48025Z" fill="currentColor"/>
<path d="M3.41066 6.47336C3.21455 6.57621 3.1746 6.89541 3.34892 7.03728C3.44334 7.11531 3.70482 7.10467 3.80288 7.01955C3.94451 6.90251 3.92272 6.57976 3.76293 6.49819C3.60677 6.41661 3.52687 6.41307 3.40703 6.47691H3.41066V6.47336Z" fill="currentColor"/>
<path d="M4.86698 6.47368C4.72534 6.55525 4.69629 6.60136 4.69629 6.7716C4.69629 6.9773 4.81976 7.0908 5.04493 7.0908C5.27009 7.0908 5.36088 6.99149 5.36088 6.7645C5.36088 6.49496 5.10303 6.3389 4.86334 6.47013L4.86698 6.47368Z" fill="currentColor"/>
<path d="M6.3923 6.43462C6.15987 6.48782 6.06908 6.77865 6.22524 6.98435C6.28698 7.07657 6.33419 7.08721 6.49035 7.08721C6.64651 7.08721 6.68646 7.06947 6.75546 6.98435C6.95157 6.71835 6.71551 6.35659 6.39956 6.43462H6.39593H6.3923Z" fill="currentColor"/>
</svg>
