<svg width="20" height="20" viewBox="0 0 20 20" fill="none" xmlns="http://www.w3.org/2000/svg">
<path d="M9.69299 4.67805C9.72321 4.62412 9.7676 4.57916 9.82155 4.54784C9.87549 4.51652 9.93699 4.5 9.99965 4.5C10.0623 4.5 10.1238 4.51652 10.1778 4.54784C10.2317 4.57916 10.2761 4.62412 10.3063 4.67805L12.3731 8.53276C12.4224 8.62202 12.4912 8.69945 12.5746 8.75949C12.6579 8.81953 12.7538 8.8607 12.8552 8.88003C12.9567 8.89936 13.0613 8.89638 13.1614 8.87131C13.2616 8.84623 13.3549 8.79968 13.4345 8.73499L16.429 6.2147C16.4865 6.16877 16.5574 6.14194 16.6314 6.13808C16.7053 6.13422 16.7787 6.15352 16.8408 6.19321C16.9029 6.2329 16.9506 6.29092 16.977 6.35894C17.0034 6.42696 17.0072 6.50145 16.9878 6.5717L15.0036 14.9951C14.9631 15.1393 14.8758 15.2667 14.755 15.3578C14.6342 15.4489 14.4865 15.4988 14.3342 15.5H5.66578C5.51338 15.499 5.3655 15.4491 5.24457 15.358C5.12364 15.2668 5.03628 15.1394 4.99575 14.9951L3.01225 6.57239C2.99282 6.50214 2.99658 6.42764 3.02299 6.35963C3.0494 6.29161 3.09709 6.23358 3.15921 6.19389C3.22132 6.15421 3.29466 6.1349 3.36865 6.13877C3.44264 6.14263 3.51348 6.16946 3.57096 6.21539L6.56476 8.73568C6.64444 8.80036 6.7377 8.84692 6.83786 8.87199C6.93802 8.89707 7.04259 8.90005 7.14406 8.88072C7.24553 8.86138 7.34138 8.82022 7.42474 8.76018C7.50809 8.70014 7.57689 8.62271 7.62617 8.53345L9.69299 4.67805Z" fill="#FBBC04"/>
</svg>
