<svg width="40" height="40" viewBox="0 0 40 40" fill="none" xmlns="http://www.w3.org/2000/svg">
<rect width="40" height="40" rx="20" fill="#3B3B3B"/>
<path d="M19.5176 11.2752C19.565 11.1918 19.6348 11.1223 19.7196 11.0739C19.8043 11.0255 19.901 11 19.9995 11C20.0979 11 20.1946 11.0255 20.2793 11.0739C20.3641 11.1223 20.4339 11.1918 20.4813 11.2752L23.7292 17.2324C23.8067 17.3704 23.9148 17.4901 24.0457 17.5828C24.1767 17.6756 24.3274 17.7393 24.4868 17.7691C24.6463 17.799 24.8106 17.7944 24.968 17.7557C25.1254 17.7169 25.2719 17.645 25.3971 17.545L30.1028 13.65C30.1931 13.579 30.3044 13.5375 30.4207 13.5316C30.537 13.5256 30.6522 13.5554 30.7498 13.6168C30.8474 13.6781 30.9224 13.7678 30.9639 13.8729C31.0054 13.978 31.0113 14.0931 30.9808 14.2017L27.8627 27.2197C27.7991 27.4426 27.662 27.6394 27.4722 27.7802C27.2824 27.921 27.0502 27.9982 26.8109 28H13.1891C12.9496 27.9984 12.7172 27.9213 12.5272 27.7805C12.3372 27.6397 12.1999 27.4428 12.1362 27.2197L9.01925 14.2028C8.98872 14.0942 8.99463 13.9791 9.03613 13.874C9.07763 13.7689 9.15258 13.6792 9.25018 13.6178C9.34779 13.5565 9.46303 13.5267 9.5793 13.5326C9.69558 13.5386 9.80689 13.5801 9.89722 13.6511L14.6018 17.546C14.727 17.646 14.8735 17.718 15.0309 17.7567C15.1883 17.7955 15.3526 17.8001 15.5121 17.7702C15.6715 17.7403 15.8222 17.6767 15.9532 17.5839C16.0841 17.4911 16.1922 17.3715 16.2697 17.2335L19.5176 11.2752Z" fill="#FBBC04"/>
</svg>
