<svg width="20" height="20" viewBox="0 0 20 20" fill="none" xmlns="http://www.w3.org/2000/svg">
<path d="M1.88363 4.39165L2.95029 3.33331L16.8836 17.2666L15.8253 18.3333L13.2586 15.7666C12.3003 16.0833 11.2836 16.25 10.217 16.25C6.05029 16.25 2.49196 13.6583 1.05029 9.99998C1.62529 8.53331 2.54196 7.24165 3.70863 6.21665L1.88363 4.39165ZM10.217 7.49998C10.88 7.49998 11.5159 7.76337 11.9847 8.23221C12.4536 8.70105 12.717 9.33694 12.717 9.99998C12.717 10.2916 12.667 10.575 12.5753 10.8333L9.38363 7.64165C9.64196 7.54998 9.92529 7.49998 10.217 7.49998ZM10.217 3.74998C14.3836 3.74998 17.942 6.34165 19.3836 9.99998C18.7003 11.7333 17.542 13.2333 16.0503 14.325L14.867 13.1333C16.0003 12.35 16.9336 11.2833 17.567 9.99998C16.192 7.19998 13.3503 5.41665 10.217 5.41665C9.30863 5.41665 8.41696 5.56665 7.58363 5.83331L6.30029 4.55831C7.50029 4.04165 8.82529 3.74998 10.217 3.74998ZM2.86696 9.99998C4.24196 12.8 7.08363 14.5833 10.217 14.5833C10.792 14.5833 11.3586 14.525 11.8836 14.4083L9.98363 12.5C8.79196 12.375 7.84196 11.425 7.71696 10.2333L4.88363 7.39165C4.05863 8.09998 3.36696 8.98331 2.86696 9.99998Z" fill="#1B1B1B"/>
</svg>
