<svg width="20" height="20" viewBox="0 0 20 20" fill="none" xmlns="http://www.w3.org/2000/svg">
<path d="M9.99992 7.61371C10.663 7.61371 11.2988 7.8771 11.7677 8.34594C12.2365 8.81478 12.4999 9.45067 12.4999 10.1137C12.4999 10.7767 12.2365 11.4126 11.7677 11.8815C11.2988 12.3503 10.663 12.6137 9.99992 12.6137C9.33688 12.6137 8.70099 12.3503 8.23215 11.8815C7.76331 11.4126 7.49992 10.7767 7.49992 10.1137C7.49992 9.45067 7.76331 8.81478 8.23215 8.34594C8.70099 7.8771 9.33688 7.61371 9.99992 7.61371ZM9.99992 3.86371C14.1666 3.86371 17.7249 6.45538 19.1666 10.1137C17.7249 13.772 14.1666 16.3637 9.99992 16.3637C5.83325 16.3637 2.27492 13.772 0.833252 10.1137C2.27492 6.45538 5.83325 3.86371 9.99992 3.86371ZM2.64992 10.1137C4.02492 12.9137 6.86659 14.697 9.99992 14.697C13.1333 14.697 15.9749 12.9137 17.3499 10.1137C15.9749 7.31371 13.1333 5.53038 9.99992 5.53038C6.86659 5.53038 4.02492 7.31371 2.64992 10.1137Z" fill="#1B1B1B"/>
</svg>
