<svg width="24" height="24" viewBox="0 0 24 24" fill="none" xmlns="http://www.w3.org/2000/svg">
<path d="M11.4061 11.5568L3.07446 20.2625C3.16802 20.5932 3.33614 20.8982 3.56599 21.1542C3.79584 21.4101 4.08133 21.6103 4.40063 21.7393C4.71993 21.8684 5.06459 21.9229 5.40826 21.8988C5.75193 21.8746 6.08552 21.7724 6.38351 21.6L15.7581 16.275L11.4061 11.5568Z" fill="#EA4335"/>
<path d="M19.8308 10.0769L15.7768 7.76117L11.2136 11.7549L15.7954 16.2626L19.8184 13.9716C20.1748 13.7855 20.4733 13.5056 20.6816 13.1624C20.8899 12.8191 21.0001 12.4255 21.0001 12.0243C21.0001 11.623 20.8899 11.2294 20.6816 10.8862C20.4733 10.5429 20.1748 10.263 19.8184 10.0769H19.8308Z" fill="#FBBC04"/>
<path d="M3.07452 3.74268C3.02416 3.92836 2.9991 4.11997 3.00002 4.31233V19.6929C3.00053 19.8852 3.02556 20.0766 3.07452 20.2626L11.6917 11.7797L3.07452 3.74268Z" fill="#4285F4"/>
<path d="M11.4681 12.0026L15.7767 7.7612L6.41455 2.41143C6.06234 2.2057 5.66176 2.09674 5.25359 2.09565C4.76064 2.09467 4.28088 2.25449 3.88746 2.55072C3.49404 2.84696 3.20853 3.26338 3.07446 3.73649L11.4681 12.0026Z" fill="#34A853"/>
</svg>
