<svg width="52" height="88" viewBox="0 0 52 88" fill="none" xmlns="http://www.w3.org/2000/svg">
<rect x="0.5" y="0.5" width="51" height="87" rx="4.5" stroke="#8A38F5" stroke-dasharray="10 5"/>
<path d="M17.6667 23.9167C17.6668 22.9893 17.9481 22.0838 18.4735 21.3197C18.999 20.5556 19.7438 19.9689 20.6098 19.637C21.4757 19.3051 22.4219 19.2437 23.3234 19.4609C24.225 19.678 25.0394 20.1636 25.6592 20.8533C25.7029 20.9 25.7557 20.9372 25.8143 20.9627C25.8729 20.9881 25.9362 21.0012 26.0001 21.0012C26.064 21.0012 26.1272 20.9881 26.1859 20.9627C26.2445 20.9372 26.2973 20.9 26.3409 20.8533C26.9588 20.1591 27.7734 19.6695 28.6764 19.4497C29.5795 19.2299 30.528 19.2903 31.3958 19.6229C32.2636 19.9555 33.0096 20.5446 33.5343 21.3116C34.0591 22.0786 34.3378 22.9873 34.3334 23.9167C34.3334 25.825 33.0834 27.25 31.8334 28.5L27.2567 32.9275C27.1015 33.1059 26.91 33.2491 26.6951 33.3478C26.4802 33.4464 26.2468 33.4982 26.0103 33.4997C25.7739 33.5012 25.5398 33.4524 25.3237 33.3565C25.1075 33.2605 24.9143 33.1197 24.7567 32.9433L20.1667 28.5C18.9167 27.25 17.6667 25.8333 17.6667 23.9167Z" stroke="#9E9E9E" stroke-width="1.5" stroke-linecap="round" stroke-linejoin="round"/>
<path d="M17.6667 59.9167C17.6668 58.9893 17.9481 58.0838 18.4735 57.3197C18.999 56.5556 19.7438 55.9689 20.6098 55.637C21.4757 55.3051 22.4219 55.2437 23.3234 55.4609C24.225 55.678 25.0394 56.1636 25.6592 56.8533C25.7029 56.9 25.7557 56.9372 25.8143 56.9627C25.8729 56.9881 25.9362 57.0012 26.0001 57.0012C26.064 57.0012 26.1272 56.9881 26.1859 56.9627C26.2445 56.9372 26.2973 56.9 26.3409 56.8533C26.9588 56.1591 27.7734 55.6695 28.6764 55.4497C29.5795 55.2299 30.528 55.2903 31.3958 55.6229C32.2636 55.9555 33.0096 56.5446 33.5343 57.3116C34.0591 58.0786 34.3378 58.9873 34.3334 59.9167C34.3334 61.825 33.0834 63.25 31.8334 64.5L27.2567 68.9275C27.1015 69.1059 26.91 69.2491 26.6951 69.3478C26.4802 69.4464 26.2468 69.4982 26.0103 69.4997C25.7739 69.5012 25.5398 69.4524 25.3237 69.3565C25.1075 69.2605 24.9143 69.1197 24.7567 68.9433L20.1667 64.5C18.9167 63.25 17.6667 61.8333 17.6667 59.9167Z" fill="#9E9E9E"/>
</svg>
