<svg width="76" height="172" viewBox="0 0 76 172" fill="none" xmlns="http://www.w3.org/2000/svg">
<rect x="0.5" y="0.5" width="75" height="171" rx="4.5" stroke="#8A38F5" stroke-dasharray="10 5"/>
<path d="M21.6667 27.9167C21.6668 26.9893 21.9481 26.0838 22.4735 25.3197C22.999 24.5556 23.7438 23.9689 24.6098 23.637C25.4757 23.3051 26.4219 23.2437 27.3234 23.4609C28.225 23.678 29.0394 24.1636 29.6592 24.8533C29.7029 24.9 29.7557 24.9372 29.8143 24.9627C29.8729 24.9881 29.9362 25.0012 30.0001 25.0012C30.064 25.0012 30.1272 24.9881 30.1859 24.9627C30.2445 24.9372 30.2973 24.9 30.3409 24.8533C30.9588 24.1591 31.7734 23.6695 32.6764 23.4497C33.5795 23.2299 34.528 23.2903 35.3958 23.6229C36.2636 23.9555 37.0096 24.5446 37.5343 25.3116C38.0591 26.0786 38.3378 26.9873 38.3334 27.9167C38.3334 29.825 37.0834 31.25 35.8334 32.5L31.2567 36.9275C31.1015 37.1059 30.91 37.2491 30.6951 37.3478C30.4802 37.4464 30.2468 37.4982 30.0103 37.4997C29.7739 37.5012 29.5398 37.4524 29.3237 37.3565C29.1075 37.2605 28.9143 37.1197 28.7567 36.9433L24.1667 32.5C22.9167 31.25 21.6667 29.8333 21.6667 27.9167Z" stroke="white" stroke-width="1.5" stroke-linecap="round" stroke-linejoin="round"/>
<path d="M21.6667 75.9167C21.6668 74.9893 21.9481 74.0838 22.4735 73.3197C22.999 72.5556 23.7438 71.9689 24.6098 71.637C25.4757 71.3051 26.4219 71.2437 27.3234 71.4609C28.225 71.678 29.0394 72.1636 29.6592 72.8533C29.7029 72.9 29.7557 72.9372 29.8143 72.9627C29.8729 72.9881 29.9362 73.0012 30.0001 73.0012C30.064 73.0012 30.1272 72.9881 30.1859 72.9627C30.2445 72.9372 30.2973 72.9 30.3409 72.8533C30.9588 72.1591 31.7734 71.6695 32.6764 71.4497C33.5795 71.2299 34.528 71.2903 35.3958 71.6229C36.2636 71.9555 37.0096 72.5446 37.5343 73.3116C38.0591 74.0786 38.3378 74.9873 38.3334 75.9167C38.3334 77.825 37.0834 79.25 35.8334 80.5L31.2567 84.9275C31.1015 85.1059 30.91 85.2491 30.6951 85.3478C30.4802 85.4464 30.2468 85.4982 30.0103 85.4997C29.7739 85.5012 29.5398 85.4524 29.3237 85.3565C29.1075 85.2605 28.9143 85.1197 28.7567 84.9433L24.1667 80.5C22.9167 79.25 21.6667 77.8333 21.6667 75.9167Z" fill="#DB0025"/>
<path d="M21.6667 123.917C21.6668 122.989 21.9481 122.084 22.4735 121.32C22.999 120.556 23.7438 119.969 24.6098 119.637C25.4757 119.305 26.4219 119.244 27.3234 119.461C28.225 119.678 29.0394 120.164 29.6592 120.853C29.7029 120.9 29.7557 120.937 29.8143 120.963C29.8729 120.988 29.9362 121.001 30.0001 121.001C30.064 121.001 30.1272 120.988 30.1859 120.963C30.2445 120.937 30.2973 120.9 30.3409 120.853C30.9588 120.159 31.7734 119.669 32.6764 119.45C33.5795 119.23 34.528 119.29 35.3958 119.623C36.2636 119.956 37.0096 120.545 37.5343 121.312C38.0591 122.079 38.3378 122.987 38.3334 123.917C38.3334 125.825 37.0834 127.25 35.8334 128.5L31.2567 132.928C31.1015 133.106 30.91 133.249 30.6951 133.348C30.4802 133.446 30.2468 133.498 30.0103 133.5C29.7739 133.501 29.5398 133.452 29.3237 133.356C29.1075 133.261 28.9143 133.12 28.7567 132.943L24.1667 128.5C22.9167 127.25 21.6667 125.833 21.6667 123.917Z" stroke="#1B1B1B" stroke-width="1.5" stroke-linecap="round" stroke-linejoin="round"/>
</svg>
