<svg width="16" height="16" viewBox="0 0 16 16" fill="none" xmlns="http://www.w3.org/2000/svg">
<path d="M10 14V10.6667C10 10.4899 9.92976 10.3203 9.80474 10.1953C9.67971 10.0702 9.51014 10 9.33333 10H6.66667C6.48986 10 6.32029 10.0702 6.19526 10.1953C6.07024 10.3203 6 10.4899 6 10.6667V14" stroke="white" stroke-width="1.5" stroke-linecap="round" stroke-linejoin="round"/>
<path d="M11.8496 6.8735C11.7107 6.74045 11.5257 6.66619 11.3333 6.66619C11.1409 6.66619 10.9559 6.74045 10.817 6.8735C10.507 7.16917 10.095 7.33413 9.66663 7.33413C9.23823 7.33413 8.82629 7.16917 8.51629 6.8735C8.37735 6.74065 8.19253 6.66651 8.00029 6.66651C7.80806 6.66651 7.62324 6.74065 7.48429 6.8735C7.17427 7.16937 6.76218 7.33445 6.33363 7.33445C5.90507 7.33445 5.49299 7.16937 5.18296 6.8735C5.04398 6.74045 4.85902 6.66619 4.66663 6.66619C4.47424 6.66619 4.28927 6.74045 4.15029 6.8735C3.85086 7.15924 3.45581 7.32334 3.04204 7.33386C2.62828 7.34438 2.2254 7.20057 1.91183 6.93042C1.59826 6.66026 1.39642 6.28309 1.34562 5.87232C1.29481 5.46156 1.39866 5.04658 1.63696 4.70816L3.56296 1.91883C3.68516 1.7385 3.84969 1.59087 4.04215 1.48883C4.2346 1.38679 4.44913 1.33346 4.66696 1.3335H11.3336C11.5508 1.33341 11.7648 1.38639 11.9568 1.48782C12.1489 1.58925 12.3132 1.73607 12.4356 1.9155L14.3656 4.71016C14.604 5.04885 14.7077 5.46414 14.6566 5.87512C14.6054 6.2861 14.4031 6.66333 14.0891 6.93329C13.775 7.20325 13.3717 7.34661 12.9577 7.33544C12.5437 7.32426 12.1487 7.15935 11.8496 6.87283" stroke="white" stroke-width="1.5" stroke-linecap="round" stroke-linejoin="round"/>
<path d="M2.66699 7.2998V12.6665C2.66699 13.0201 2.80747 13.3592 3.05752 13.6093C3.30756 13.8593 3.6467 13.9998 4.00033 13.9998H12.0003C12.3539 13.9998 12.6931 13.8593 12.9431 13.6093C13.1932 13.3592 13.3337 13.0201 13.3337 12.6665V7.2998" stroke="white" stroke-width="1.5" stroke-linecap="round" stroke-linejoin="round"/>
</svg>
