<svg width="30" height="30" viewBox="0 0 30 30" fill="none" xmlns="http://www.w3.org/2000/svg">
<path d="M16 8C17.8565 8 19.637 8.7375 20.9497 10.0503C22.2625 11.363 23 13.1435 23 15" stroke="currentColor" stroke-width="1.5" stroke-linecap="round" stroke-linejoin="round"/>
<path d="M16 11C17.0609 11 18.0783 11.4214 18.8284 12.1716C19.5786 12.9217 20 13.9391 20 15" stroke="currentColor" stroke-width="1.5" stroke-linecap="round" stroke-linejoin="round"/>
<path d="M16.4656 19.6544C16.6308 19.7303 16.817 19.7476 16.9934 19.7036C17.1697 19.6595 17.3259 19.5567 17.436 19.412L17.72 19.04C17.869 18.8413 18.0623 18.68 18.2845 18.5689C18.5066 18.4578 18.7516 18.4 19 18.4H21.4C21.8243 18.4 22.2313 18.5686 22.5314 18.8686C22.8314 19.1687 23 19.5757 23 20V22.4C23 22.8243 22.8314 23.2313 22.5314 23.5314C22.2313 23.8314 21.8243 24 21.4 24C17.5809 24 13.9182 22.4829 11.2177 19.7823C8.51714 17.0818 7 13.4191 7 9.6C7 9.17565 7.16857 8.76869 7.46863 8.46863C7.76869 8.16857 8.17565 8 8.6 8H11C11.4243 8 11.8313 8.16857 12.1314 8.46863C12.4314 8.76869 12.6 9.17565 12.6 9.6V12C12.6 12.2484 12.5422 12.4934 12.4311 12.7155C12.32 12.9377 12.1587 13.131 11.96 13.28L11.5856 13.5608C11.4387 13.6729 11.3352 13.8325 11.2926 14.0123C11.25 14.1921 11.271 14.3811 11.352 14.5472C12.4453 16.7679 14.2435 18.5638 16.4656 19.6544Z" fill="currentColor"/>
</svg>
