<svg width="40" height="40" viewBox="0 0 40 40" fill="none" xmlns="http://www.w3.org/2000/svg">
<rect width="40" height="40" fill="#DB0025"/>
<path d="M21.3335 10.667C23.8089 10.667 26.1828 11.6503 27.9332 13.4007C29.6835 15.151 30.6668 17.525 30.6668 20.0003" stroke="white" stroke-width="2.8" stroke-linecap="round" stroke-linejoin="round"/>
<path d="M21.3335 14.667C22.748 14.667 24.1045 15.2289 25.1047 16.2291C26.1049 17.2293 26.6668 18.5858 26.6668 20.0003" stroke="white" stroke-width="2.8" stroke-linecap="round" stroke-linejoin="round"/>
<path d="M21.9548 26.2052C22.1751 26.3064 22.4233 26.3295 22.6585 26.2708C22.8936 26.212 23.1018 26.0749 23.2487 25.882L23.6273 25.386C23.826 25.1211 24.0837 24.906 24.3799 24.7579C24.6762 24.6098 25.0028 24.5327 25.334 24.5327H28.534C29.0998 24.5327 29.6424 24.7574 30.0425 25.1575C30.4426 25.5576 30.6673 26.1002 30.6673 26.666V29.866C30.6673 30.4318 30.4426 30.9744 30.0425 31.3745C29.6424 31.7746 29.0998 31.9993 28.534 31.9993C23.4418 31.9993 18.5582 29.9765 14.9575 26.3758C11.3568 22.7751 9.33398 17.8915 9.33398 12.7993C9.33398 12.2336 9.55875 11.6909 9.95882 11.2909C10.3589 10.8908 10.9015 10.666 11.4673 10.666H14.6673C15.2331 10.666 15.7757 10.8908 16.1758 11.2909C16.5759 11.6909 16.8007 12.2336 16.8007 12.7993V15.9993C16.8007 16.3305 16.7235 16.6572 16.5754 16.9534C16.4273 17.2496 16.2123 17.5073 15.9473 17.706L15.4481 18.0804C15.2523 18.2299 15.1143 18.4426 15.0575 18.6824C15.0007 18.9221 15.0287 19.1741 15.1367 19.3956C16.5944 22.3565 18.992 24.7511 21.9548 26.2052Z" fill="white"/>
</svg>
