<svg width="24" height="24" viewBox="0 0 24 24" fill="none" xmlns="http://www.w3.org/2000/svg">
<path d="M3.71354 3.04852C3.6236 3.00462 3.52252 2.98883 3.42347 3.00322C3.32443 3.01761 3.23202 3.06151 3.15829 3.12919C3.08456 3.19687 3.03294 3.2852 3.01015 3.38265C2.98736 3.48011 2.99447 3.58217 3.03054 3.67552L5.87354 11.3025C6.04121 11.7528 6.04121 12.2483 5.87354 12.6985L3.03154 20.3255C2.99565 20.4188 2.98864 20.5207 3.01141 20.6179C3.03419 20.7152 3.0857 20.8034 3.15926 20.871C3.23281 20.9386 3.325 20.9826 3.42385 20.9971C3.5227 21.0116 3.62363 20.9961 3.71354 20.9525L21.7135 12.4525C21.7992 12.412 21.8715 12.348 21.9222 12.268C21.9729 12.188 21.9998 12.0952 21.9998 12.0005C21.9998 11.9058 21.9729 11.813 21.9222 11.733C21.8715 11.653 21.7992 11.589 21.7135 11.5485L3.71354 3.04852Z" stroke="#B1B1B1" stroke-width="1.5" stroke-linecap="round" stroke-linejoin="round"/>
<path d="M6 12H22" stroke="#B1B1B1" stroke-width="1.5" stroke-linecap="round" stroke-linejoin="round"/>
</svg>
