<svg width="58" height="46" viewBox="0 0 58 46" fill="none" xmlns="http://www.w3.org/2000/svg">
<path d="M22.3335 9.16663H35.6668" stroke="#9E9E9E" stroke-width="1.5" stroke-linecap="round" stroke-linejoin="round"/>
<path d="M22.3335 15H35.6668" stroke="#9E9E9E" stroke-width="1.5" stroke-linecap="round" stroke-linejoin="round"/>
<path d="M22.3335 20.8334H35.6668" stroke="#9E9E9E" stroke-width="1.5" stroke-linecap="round" stroke-linejoin="round"/>
<path d="M16.5684 34.0176C16.5586 36.5273 15.709 38.8223 12.584 40.3555L12.1543 39.7695C13.79 38.9785 14.7715 37.9727 15.2988 36.8008L12.3203 37.084L12.1934 36.4102L15.5332 36.1855C15.6846 35.6973 15.7725 35.1846 15.8066 34.6523H12.6328V34.0176H16.5684ZM18.7852 33.1094V36.6445H20.1914V37.2891H18.7852V41.791H18.0234V33.1094H18.7852ZM24.2832 34.1738V34.7891H21.7832V36.5078H23.8828V37.123H21.7832V39.0762C23.0283 39.0615 23.79 39.0176 24.7324 38.8418L24.8008 39.4668C23.7949 39.6719 22.9746 39.6914 21.5977 39.7012H21.0508V34.1738H24.2832ZM28.1406 33.1094V41.791H27.3984V33.1094H28.1406ZM26.3633 33.3242V41.3418H25.6309V37.0449H24.3516V36.4102H25.6309V33.3242H26.3633ZM36.3145 33.9883V34.8574C36.3047 35.9219 36.3047 37.1133 35.9922 38.8613L35.2109 38.7734C35.543 37.1133 35.543 35.8926 35.543 34.8574V34.623H30.1914V33.9883H36.3145ZM37.2617 39.9258V40.5605H29.3516V39.9258H32.457V36.8203H33.209V39.9258H37.2617ZM45.1621 33.1094V41.8105H44.4004V33.1094H45.1621ZM42.5254 33.9199V37.0059H39.2832V39.0566C40.7236 39.0566 42.0078 38.9932 43.5605 38.7441L43.6387 39.3887C42.0371 39.6426 40.7188 39.7012 39.2246 39.7012H38.502V36.3809H41.7539V34.5547H38.4824V33.9199H42.5254Z" fill="#9E9E9E"/>
</svg>
