<svg width="58" height="46" viewBox="0 0 58 46" fill="none" xmlns="http://www.w3.org/2000/svg">
<path d="M40.1997 11.8895C40.1997 7.47746 40.1997 6.83196 40.0763 6.56241C39.8366 5.95238 39.4589 5.56225 38.8633 5.26433C38.5292 5.10827 38.3912 5.09409 36.7642 5.06571L35.435 5.04443H25.7095C23.8864 5.04443 23.5451 5.11537 22.9495 5.65446C22.6008 5.95238 22.4991 6.10134 22.2812 6.63335C22.2377 6.72556 22.1941 7.34978 22.165 8.03074L22.1505 8.58402C22.1505 8.96706 21.8164 9.27208 21.4242 9.28626L20.7777 9.30754C19.681 9.34301 19.3759 9.37138 19.1362 9.49906C18.7077 9.69768 18.2574 10.1517 18.0395 10.5985L17.9233 10.8255C17.8797 10.9248 17.8506 11.0312 17.8506 11.1447L17.7998 16.0391C17.7998 19.7915 17.7998 21.1818 17.8797 21.4088C18.0104 21.8415 18.3881 22.3806 18.7295 22.6147C19.296 23.0119 21.6711 23.0758 23.4143 23.0758H24.6055C24.867 23.0758 25.0994 23.2105 25.2301 23.4304L25.4117 23.7142C25.6369 24.0688 25.9201 24.4519 26.0581 24.5866C26.5157 25.0193 27.3365 25.0832 27.8958 24.7143C28.0047 24.6576 28.317 24.2532 28.593 23.8347L28.869 23.4162C29.0143 23.2105 29.2467 23.0828 29.4937 23.0828H30.6703C32.5588 23.0828 34.4545 23.0119 35.0937 22.4444C35.7183 21.8841 35.7982 21.6429 35.8418 20.1391L35.8563 19.5504C35.8708 19.1602 36.1904 18.8481 36.5826 18.841L37.2291 18.8197C38.7834 18.7772 38.9722 18.7275 39.5533 18.1459C40.2215 17.4862 40.207 17.6564 40.1997 11.8824V11.8895ZM34.4835 16.2661L34.469 20.9123C34.469 21.118 34.3819 21.3237 34.2221 21.4585L34.1712 21.501L34.0695 21.5861C33.9243 21.7067 33.7572 21.7706 33.5756 21.7706H30.3725C28.6729 21.7706 28.4768 21.7919 28.317 21.9053C28.1572 22.0401 27.8086 22.5437 27.46 23.168C27.2711 23.4943 27.0968 23.6574 26.9806 23.5936C26.9443 23.5652 26.6973 23.2034 26.414 22.7778C26.1453 22.3522 25.8402 21.9408 25.7604 21.8912C25.6151 21.7919 25.2519 21.7706 23.7412 21.7706C21.9907 21.7706 19.8335 21.7635 19.6156 21.6074C19.1362 21.274 19.1508 21.4656 19.1508 16.1597C19.1508 10.8539 19.1508 11.0383 19.5793 10.7475C19.7609 10.6411 20.2838 10.6198 25.0122 10.6198C29.7406 10.6198 33.8952 10.6411 34.0841 10.7475C34.5126 11.0383 34.5126 10.8752 34.4835 16.2661ZM38.7544 17.0322C38.6381 17.2379 38.5365 17.3656 38.2968 17.4294C38.0643 17.4933 37.7012 17.5004 37.0402 17.5004H36.6044C36.1904 17.5004 35.8563 17.1741 35.8563 16.7768V14.3651C35.8563 12.1662 35.8273 11.1234 35.7691 10.8965C35.6529 10.485 35.297 9.98141 34.9629 9.73314C34.578 9.44232 29.5227 9.30045 27.0895 9.30045C25.9274 9.30045 24.8815 9.29336 24.2496 9.27208C23.8356 9.26498 23.516 8.93869 23.5233 8.54855V8.03074L23.5378 7.215C23.5378 7.00929 23.6395 6.81777 23.7847 6.683L23.9445 6.54823C24.0753 6.44183 24.2569 6.37799 24.4384 6.37799H36.3284C38.3403 6.37089 38.413 6.38508 38.7108 6.87452C38.856 7.09441 38.856 7.36396 38.856 11.9676C38.856 16.0604 38.856 16.862 38.7471 17.0393H38.7544V17.0322Z" fill="#1B1B1B"/>
<path d="M38.8636 11.9605C38.8636 16.0534 38.8636 16.8549 38.7546 17.0322C38.6384 17.238 38.5367 17.3656 38.2971 17.4295C38.0646 17.4933 37.7015 17.5004 37.0405 17.5004H36.6047C36.1907 17.5004 35.8566 17.1741 35.8566 16.7769V14.3651C35.8566 12.1662 35.8275 11.1235 35.7694 10.8965C35.6532 10.4851 35.2973 9.98145 34.9632 9.73318C34.5783 9.44235 29.523 9.30049 27.0898 9.30049C25.9277 9.30049 24.8818 9.29339 24.2499 9.27211C23.8359 9.26502 23.5163 8.93872 23.5236 8.54859V8.03077L23.5381 7.21504C23.5381 7.00933 23.6398 6.81781 23.785 6.68304L23.9448 6.54826C24.0756 6.44186 24.2571 6.37802 24.4387 6.37802H36.3287C38.3406 6.37093 38.4133 6.38512 38.7111 6.87456C38.8563 7.09445 38.8563 7.364 38.8563 11.9676H38.8636V11.9605Z" fill="#1B1B1B"/>
<path d="M23.8213 15.947C23.4291 16.1527 23.3492 16.7911 23.6978 17.0748C23.8867 17.2309 24.4096 17.2096 24.6058 17.0393C24.889 16.8053 24.8454 16.1598 24.5259 15.9966C24.2135 15.8335 24.0537 15.8264 23.8141 15.9541H23.8213V15.947Z" fill="#1B1B1B"/>
<path d="M26.734 15.947C26.4507 16.1101 26.3926 16.2023 26.3926 16.5428C26.3926 16.9542 26.6395 17.1812 27.0899 17.1812C27.5402 17.1812 27.7218 16.9826 27.7218 16.5286C27.7218 15.9895 27.2061 15.6774 26.7267 15.9399L26.734 15.947Z" fill="#1B1B1B"/>
<path d="M29.7846 15.869C29.3197 15.9754 29.1382 16.557 29.4505 16.9685C29.574 17.1529 29.6684 17.1742 29.9807 17.1742C30.293 17.1742 30.3729 17.1387 30.5109 16.9685C30.9031 16.4365 30.431 15.7129 29.7991 15.869H29.7919H29.7846Z" fill="#1B1B1B"/>
<path d="M14.6055 35.7754C14.6055 37.1621 15.3184 38.5879 16.5098 39.2227L16.0605 39.7988C15.1963 39.3252 14.5713 38.4365 14.2539 37.3867C13.9414 38.5 13.3213 39.4668 12.457 39.9746L11.998 39.4082C13.1699 38.7246 13.873 37.2109 13.8828 35.7754V35.375H12.2031V34.7402H13.8828V33.4316H14.6152V34.7402H16.2754V35.375H14.6055V35.7754ZM19.5273 33.1094V41.791H18.7852V37.2793H17.6035V41.3516H16.8711V33.2949H17.6035V36.625H18.7852V33.1094H19.5273ZM25.377 33.7539V34.3789H21.9883V35.4727H25.1328V36.0977H21.9883V37.2402C23.8389 37.2402 24.8643 37.2061 26.0898 37.0059L26.168 37.6309C24.8984 37.8359 23.834 37.875 21.9199 37.875H21.2168V33.7539H25.377ZM27.877 33.1191V38.5H27.1152V33.1191H27.877ZM24.9961 38.627C26.8027 38.6172 27.916 39.1934 27.916 40.1895C27.916 41.2051 26.8027 41.7715 24.9961 41.7715C23.1504 41.7715 22.0566 41.2051 22.0566 40.1895C22.0566 39.1934 23.1504 38.6172 24.9961 38.627ZM24.9961 39.2324C23.6289 39.2324 22.8184 39.5938 22.8184 40.1895C22.8184 40.8047 23.6289 41.166 24.9961 41.166C26.3242 41.166 27.1641 40.8047 27.1641 40.1895C27.1641 39.5938 26.3242 39.2324 24.9961 39.2324ZM36.0703 33.1094V36.6934H37.5254V37.3281H36.0703V41.791H35.3086V33.1094H36.0703ZM34.4688 34.5059V35.1406H29.3027V34.5059H31.5391V33.2168H32.3008V34.5059H34.4688ZM31.9297 35.8633C33.1602 35.8633 34.0488 36.6836 34.0586 37.8555C34.0488 39.0273 33.1602 39.8477 31.9297 39.8477C30.6895 39.8477 29.791 39.0273 29.8008 37.8555C29.791 36.6836 30.6895 35.8633 31.9297 35.8633ZM31.9297 36.5078C31.1191 36.5078 30.5234 37.0742 30.5332 37.8555C30.5234 38.6465 31.1191 39.2031 31.9297 39.1934C32.7305 39.2031 33.3164 38.6465 33.3262 37.8555C33.3164 37.0742 32.7305 36.5078 31.9297 36.5078ZM45.1719 33.1094V41.791H44.4004V33.1094H45.1719ZM42.6035 34.0566C42.5938 36.5566 41.4316 38.7637 38.5215 40.1602L38.1016 39.5352C40.4502 38.4219 41.6465 36.7568 41.8223 34.6816H38.502V34.0566H42.6035Z" fill="#1B1B1B"/>
</svg>
