<svg width="58" height="46" viewBox="0 0 58 46" fill="none" xmlns="http://www.w3.org/2000/svg">
<path d="M28.0293 8.54883C28.6171 8.15695 29.3829 8.15695 29.9707 8.54883L35.4707 12.2148C35.9574 12.5393 36.2499 13.0859 36.25 13.6709V20.5C36.25 21.4665 35.4665 22.25 34.5 22.25H23.5C22.5335 22.25 21.75 21.4665 21.75 20.5V13.6709C21.7501 13.0859 22.0426 12.5393 22.5293 12.2148L28.0293 8.54883Z" stroke="#1B1B1B" stroke-width="1.5"/>
<path d="M31.9736 39.1934V41.6738H25.9971V39.1934H31.9736ZM26.7588 39.7891V41.0781H31.2217V39.7891H26.7588ZM32.4814 33.8418V34.4375H25.4404V33.8418H28.6045V32.9824H29.3662V33.8418H32.4814ZM28.9854 34.7891C30.7822 34.7988 31.7979 35.209 31.7979 36.0195C31.7979 36.7812 30.9238 37.1865 29.3662 37.2402V37.9141H32.9404V38.5293H25.0303V37.9141H28.6045V37.2402C27.042 37.1865 26.1631 36.7812 26.1631 36.0195C26.1631 35.209 27.1885 34.7988 28.9854 34.7891ZM28.9854 35.3262C27.7061 35.3359 26.9736 35.5703 26.9834 36.0195C26.9736 36.459 27.7061 36.7129 28.9854 36.7129C30.2549 36.7129 30.9873 36.459 30.9873 36.0195C30.9873 35.5703 30.2549 35.3359 28.9854 35.3262Z" fill="#1B1B1B"/>
</svg>
