<svg width="58" height="46" viewBox="0 0 58 46" fill="none" xmlns="http://www.w3.org/2000/svg">
<path d="M29.0008 18.0103C30.6634 18.0103 32.0113 16.6626 32.0113 15.0001C32.0113 13.3376 30.6634 11.9899 29.0008 11.9899C27.3381 11.9899 25.9902 13.3376 25.9902 15.0001C25.9902 16.6626 27.3381 18.0103 29.0008 18.0103Z" fill="#3B3B3B"/>
<path d="M40.4894 13.479L38.4251 12.9974C38.1769 11.7734 37.6825 10.6469 37.0143 9.65837L38.1026 7.82761L36.0489 5.79958L34.2435 6.9133C33.2421 6.27052 32.1049 5.79958 30.8914 5.5535L30.3716 3.5L27.4778 3.51273L26.9834 5.57895C25.7848 5.83776 24.6455 6.32144 23.6568 6.98755L21.8386 5.89928L20.8118 6.92603L19.7977 7.95278L20.763 9.5226H28.9989C32.0285 9.5226 34.4768 11.9834 34.4768 15C34.4768 15.6682 34.3665 16.2983 34.131 16.8923H38.4463L40.5 16.3725L40.4873 13.479H40.4894ZM29.0011 20.4774C25.9715 20.4774 23.5232 18.0293 23.5232 15C23.5232 14.3318 23.6462 13.7017 23.869 13.1077H19.5537L17.5 13.6275L17.5127 16.5083L19.577 17.0026C19.8252 18.2266 20.3196 19.3509 20.9751 20.3416L19.8995 22.1597L20.9263 23.1864L21.9532 24.1877L23.7586 23.0867C24.76 23.7422 25.8972 24.2132 27.1107 24.4592L27.6305 26.5L30.5116 26.4873L31.0059 24.4338C32.2174 24.1728 33.3439 23.6786 34.3453 23.0125L36.1635 24.1007L37.1776 23.074L38.1917 22.0472L37.2264 20.4774H29.0032H29.0011Z" fill="#DB0025"/>
<path d="M19.0195 32.6094V36.0078H20.2012V36.6621H19.0195V41.291H18.2578V32.6094H19.0195ZM12.9062 33.4199V35.666H14V33.4199H14.6543V39.1914H12.2422V33.4199H12.9062ZM12.9062 38.5469H14V36.2812H12.9062V38.5469ZM15.7773 33.4199V35.666H16.8418V33.4199H17.4961V39.1914H15.123V33.4199H15.7773ZM15.7773 38.5469H16.8418V36.2812H15.7773V38.5469ZM28.6484 37.4238V38.0586H20.6992V37.4238H28.6484ZM27.8086 40.4609V41.1055H21.7539V38.7422H22.5254V40.4609H27.8086ZM27.623 32.9121V35.0508H22.4961V36.0176H27.8086V36.623H21.7344V34.4746H26.8516V33.5273H21.7051V32.9121H27.623ZM32.9941 33.625V35.8906H34.3125V32.7949H35.0449V40.8516H34.3125V36.5254H32.9941V38.957H29.6738V33.625H32.9941ZM30.3965 34.2402V38.3418H32.2715V34.2402H30.3965ZM36.793 32.6094V41.291H36.0508V32.6094H36.793ZM44.9766 35.5488V36.1836H39V33.0586H39.7812V35.5488H44.9766ZM45.9043 37.4434V38.0781H43.8438V41.291H43.082V38.0781H40.8262V41.291H40.0645V38.0781H37.9941V37.4434H45.9043Z" fill="#1B1B1B"/>
</svg>
