<svg width="58" height="46" viewBox="0 0 58 46" fill="none" xmlns="http://www.w3.org/2000/svg">
<path d="M35 23C35 21.4087 34.3679 19.8826 33.2426 18.7574C32.1174 17.6321 30.5913 17 29 17C27.4087 17 25.8826 17.6321 24.7574 18.7574C23.6321 19.8826 23 21.4087 23 23" stroke="#9E9E9E" stroke-width="1.5" stroke-linecap="round" stroke-linejoin="round"/>
<path d="M29 17C31.2091 17 33 15.2091 33 13C33 10.7909 31.2091 9 29 9C26.7909 9 25 10.7909 25 13C25 15.2091 26.7909 17 29 17Z" stroke="#9E9E9E" stroke-width="1.5" stroke-linecap="round" stroke-linejoin="round"/>
<path d="M29 25C34.5228 25 39 20.5228 39 15C39 9.47715 34.5228 5 29 5C23.4772 5 19 9.47715 19 15C19 20.5228 23.4772 25 29 25Z" stroke="#9E9E9E" stroke-width="1.5" stroke-linecap="round" stroke-linejoin="round"/>
<path d="M12.1104 33.9883V39.584H8.10645V33.9883H12.1104ZM8.84863 34.6035V38.959H11.3486V34.6035H8.84863ZM14.4639 33.1094V36.5762H15.9189V37.2402H14.4639V41.791H13.7021V33.1094H14.4639ZM23.5459 33.1094V41.8105H22.7744V33.1094H23.5459ZM18.9268 33.7832C20.2158 33.793 21.1436 34.9648 21.1436 36.8105C21.1436 38.6562 20.2158 39.8281 18.9268 39.8281C17.6279 39.8281 16.71 38.6562 16.71 36.8105C16.71 34.9648 17.6279 33.793 18.9268 33.7832ZM18.9268 34.4668C18.0576 34.4766 17.4521 35.3945 17.4521 36.8105C17.4521 38.2266 18.0576 39.1445 18.9268 39.1445C19.7959 39.1445 20.4014 38.2266 20.4014 36.8105C20.4014 35.3945 19.7959 34.4766 18.9268 34.4668ZM32.501 33.1094V41.791H31.7588V33.1094H32.501ZM30.8018 33.3242V41.332H30.0693V37.1035H28.8584V36.4102H30.0693V33.3242H30.8018ZM29.1123 34.2227V34.8574H28.3799V38.8711C28.707 38.8516 29.0195 38.8223 29.3076 38.7832L29.3564 39.3496C27.9893 39.6035 26.1631 39.6426 25.0303 39.6426L24.9326 38.9883L25.8506 38.9785V34.8574H25.1182V34.2227H29.1123ZM26.5537 38.9688C26.915 38.959 27.2959 38.9443 27.667 38.9199V34.8574H26.5537V38.9688ZM40.8311 33.1094V41.8105H40.0596V33.1094H40.8311ZM36.2119 33.7832C37.501 33.793 38.4287 34.9648 38.4287 36.8105C38.4287 38.6562 37.501 39.8281 36.2119 39.8281C34.9131 39.8281 33.9951 38.6562 33.9951 36.8105C33.9951 34.9648 34.9131 33.793 36.2119 33.7832ZM36.2119 34.4668C35.3428 34.4766 34.7373 35.3945 34.7373 36.8105C34.7373 38.2266 35.3428 39.1445 36.2119 39.1445C37.0811 39.1445 37.6865 38.2266 37.6865 36.8105C37.6865 35.3945 37.0811 34.4766 36.2119 34.4668ZM45.4209 35.7754C45.4209 37.25 46.4951 38.7441 47.7744 39.3008L47.3447 39.9062C46.3291 39.4424 45.4502 38.4414 45.0498 37.2402C44.6396 38.5146 43.7656 39.623 42.7744 40.1211L42.3154 39.5156C43.5557 38.9199 44.6396 37.2793 44.6494 35.7754V34.6426H42.5986V34.0078H47.4912V34.6426H45.4209V35.7754ZM49.4736 33.1094V41.791H48.7021V33.1094H49.4736Z" fill="#9E9E9E"/>
</svg>
