<svg width="24" height="24" viewBox="0 0 24 24" fill="none" xmlns="http://www.w3.org/2000/svg">
<g clip-path="url(#clip0_2031_2584)">
<path d="M19.3836 12.8066C19.5934 12.2523 20.675 9.78516 20.93 9.17254C21.1192 8.85997 20.8848 8.3682 20.4694 8.46406C20.2185 8.5349 20.0088 8.72244 19.7579 8.88914C19.5851 9.00584 19.4577 9.05168 19.3836 8.97666C19.2356 8.77245 19.1698 8.38071 19.1163 8.11815C19.0135 7.37633 18.7544 4.90081 18.6433 4.25485C18.5775 3.97145 18.1827 3.82142 17.9524 4.05064C17.7139 4.24651 17.574 4.90915 17.3314 5.03834C17.2491 5.07585 17.1545 5.00917 17.0558 4.91332C16.6816 4.56324 16.5664 4.38404 16.2909 4.01313C15.5588 3.10877 14.724 1.77933 14.177 1.26672C13.8274 1.07502 13.4285 1.36258 13.4901 1.80434C13.4943 2.13357 13.6012 2.63368 13.4531 2.71286C13.3914 2.74203 13.3174 2.74203 13.2557 2.7337C12.1206 2.45447 9.88743 1.32924 9.12247 1.05001C8.83869 0.89998 8.41098 1.11252 8.44799 1.46677C8.46444 1.67097 8.64951 1.91269 8.83047 2.16691C8.99909 2.40029 9.06489 2.56699 8.92917 2.64618C8.64951 2.77537 8.35751 2.84622 8.05317 2.88789C7.33345 2.97541 4.93575 3.25881 4.38877 3.32549C4.08854 3.32549 3.82533 3.64639 3.96927 3.94228C4.05564 4.12982 4.31063 4.24234 4.60674 4.37987C4.91519 4.5174 5.12494 4.64243 5.03035 4.78412C4.8864 4.99667 4.64787 5.20504 4.44634 5.37174C3.93637 5.75099 1.97462 7.20129 1.46465 7.58054C1.13563 7.76391 1.10684 8.3307 1.50989 8.44739C1.78132 8.57658 2.61209 8.28485 2.73135 8.55574C2.76426 8.80579 2.6162 9.16837 2.52572 9.41842C2.27073 10.0185 1.26724 12.3399 1.04926 12.8608C0.901208 13.1484 1.11095 13.5693 1.46465 13.5318C1.78544 13.5526 2.36121 12.8275 2.61209 13.0108C2.76014 13.215 2.82595 13.6068 2.87941 13.8693C2.95344 14.4986 3.24133 16.9116 3.31947 17.5409C3.31536 17.8535 3.58679 18.1661 3.93637 18.0119C4.32296 17.866 4.41756 16.8158 4.79592 16.9533C5.01389 17.0992 5.20308 17.2992 5.3717 17.4951C5.70894 17.941 7.2183 19.9665 7.61311 20.4874C7.81052 20.8416 8.42743 20.8375 8.49734 20.379C8.55903 20.1081 8.42743 19.633 8.485 19.3163C8.53436 19.0829 9.05255 19.3497 9.27053 19.3913C10.019 19.6997 11.9109 20.5207 12.7334 20.875C13.0254 21.0167 13.2557 21.0959 13.4655 20.8416C13.7739 20.3832 13.009 19.8873 12.9802 19.483C12.9884 19.408 13.0542 19.3663 13.157 19.3288C13.667 19.1496 13.9631 19.1288 14.4731 19.0704C15.4396 18.9579 17.0435 18.7662 17.5411 18.7079C18.158 18.6829 18.2362 17.9952 17.6234 17.766C16.7515 17.3784 16.7721 17.3367 17.4178 16.7408C17.9771 16.2949 19.9635 14.8404 20.5969 14.3444C20.8642 14.1402 20.8272 13.6401 20.4735 13.5443C20.2884 13.4818 20.0088 13.5234 19.7209 13.5443C19.0094 13.6485 19.289 13.2776 19.3836 12.8525L19.396 12.8108L19.3836 12.8066ZM18.3349 14.3903C18.6927 14.732 19.3055 14.3361 18.4089 14.9904C17.7056 15.5364 17.0106 15.974 16.4019 16.5949C16.1099 16.8991 15.6699 17.1534 15.6329 17.5034C15.6164 17.7202 15.8097 17.891 15.9619 18.0035C16.0194 18.0536 15.9742 18.0744 15.8138 18.0952C14.8843 18.2161 13.7369 18.2953 12.8856 18.5495C12.2769 18.687 11.3844 18.737 11.8081 19.533C11.8245 19.583 11.8081 19.5955 11.7423 19.5747C11.1089 19.333 9.83396 18.6829 9.06078 18.487C8.62895 18.4453 7.98326 17.9369 7.65835 18.3661C7.61311 18.4536 7.57199 18.5703 7.56376 18.662C7.53909 18.7537 7.56376 18.8996 7.46094 18.7954C6.84815 17.9785 5.91457 16.6991 5.12494 15.9198C4.89051 15.6447 4.57795 15.4947 4.32296 15.7572C4.2037 15.8531 4.10088 16.1615 4.06386 15.8031C3.9446 14.8404 3.86234 13.686 3.59502 12.8025C3.47986 12.2773 3.42229 11.4438 2.75192 11.7314C2.66555 11.7564 2.5504 11.8564 2.5833 11.7106C2.72724 11.3438 3.22899 10.1894 3.43874 9.68514C3.59502 9.23922 3.67316 8.75578 3.84178 8.30569C4.0433 7.78892 3.85412 7.43051 3.32358 7.40967C3.27423 7.39717 3.27012 7.37633 3.32358 7.32215C3.63203 7.08043 4.63964 6.33861 5.07559 6.00521C5.45807 5.68014 5.81998 5.27172 6.20657 4.94666C6.61784 4.60909 6.5726 4.22567 6.16956 3.97562C6.13255 3.93811 6.14077 3.92144 6.21069 3.90061C6.58083 3.83809 8.05317 3.67973 8.4521 3.62138C8.7441 3.57137 9.01143 3.47552 9.31577 3.40884C9.69413 3.30882 10.1794 3.30465 10.3686 3.03793C10.4673 2.9004 10.4468 2.70869 10.381 2.56699C10.3563 2.47948 10.2535 2.36695 10.3974 2.40029C11.2899 2.78787 12.7375 3.45468 13.778 3.70473C14.2798 3.89644 14.6458 3.71723 14.6664 3.17962C14.6787 3.11711 14.7116 3.12961 14.7856 3.2213C15.0571 3.58387 15.8261 4.63826 16.0606 4.95916C16.2374 5.20088 16.4431 5.39675 16.6569 5.61763C16.9695 5.90936 17.208 6.35112 17.5535 6.38862C17.718 6.40113 17.8743 6.29277 17.9689 6.16358C18.0429 6.08023 18.1005 5.93853 18.1334 6.14691C18.2485 7.08877 18.3555 8.35987 18.6146 9.21838C18.7215 9.73932 18.7955 10.5562 19.4535 10.2728C19.5399 10.2478 19.6551 10.1477 19.6222 10.2894C19.5481 10.4728 19.4206 10.7729 19.3219 10.9979C18.9395 11.8689 18.6351 12.4857 18.4295 13.3609C18.3513 13.6693 18.1457 14.036 18.3061 14.3361L18.339 14.382L18.3349 14.3903Z" fill="#1B1B1B"/>
<path d="M11.0185 5.25089C7.81885 5.25089 5.23608 7.87226 5.23608 11.1229C5.23608 14.3736 7.81474 16.9992 11.0185 16.9992C14.2223 16.9992 16.8092 14.3736 16.8092 11.1229C16.8092 7.87226 14.2182 5.25089 11.0185 5.25089ZM11.0185 16.124C8.29592 16.124 6.09152 13.886 6.09152 11.1229C6.09152 8.35987 8.30004 6.12607 11.0185 6.12607C13.737 6.12607 15.9455 8.36403 15.9455 11.1229C15.9455 13.8818 13.7411 16.124 11.0185 16.124Z" fill="#1B1B1B"/>
<path d="M11.0186 6.12607C8.30007 6.12607 6.09155 8.36403 6.09155 11.1229C6.09155 13.8819 8.29595 16.124 11.0186 16.124C13.7412 16.124 15.9456 13.886 15.9456 11.1229C15.9456 8.35987 13.7412 6.12607 11.0186 6.12607ZM11.0186 14.657C9.09382 14.657 7.53922 13.0817 7.53922 11.1229C7.53922 9.1642 9.0897 7.59304 11.0186 7.59304C12.9474 7.59304 14.4979 9.16837 14.4979 11.1229C14.4979 13.0775 12.9515 14.657 11.0186 14.657Z" fill="#DB0025"/>
<path d="M11.0184 7.59305C9.08955 7.59305 7.53906 9.16838 7.53906 11.123C7.53906 13.0775 9.09366 14.657 11.0184 14.657C12.9431 14.657 14.4977 13.0817 14.4977 11.123C14.4977 9.16421 12.9514 7.59305 11.0184 7.59305ZM11.0184 13.7818C9.57073 13.7818 8.40273 12.5941 8.40273 11.123C8.40273 9.65181 9.57073 8.46823 11.0184 8.46823C12.4661 8.46823 13.6382 9.65598 13.6382 11.123C13.6382 12.5899 12.4661 13.7818 11.0184 13.7818Z" fill="#1B1B1B"/>
</g>
<defs>
<clipPath id="clip0_2031_2584">
<rect width="20" height="20" fill="white" transform="translate(1 1)"/>
</clipPath>
</defs>
</svg>
