<svg width="24" height="24" viewBox="0 0 24 24" fill="none" xmlns="http://www.w3.org/2000/svg">
<g clip-path="url(#clip0_2031_2467)">
<path d="M20.4867 19.9277H12.2612C12.31 19.7744 12.3393 19.616 12.3393 19.4478C12.3393 18.5969 11.6558 17.9092 10.8211 17.9092H6.68147V15.3713L7.70173 14.2086C7.79937 14.0701 7.83354 13.9316 7.83354 13.7881V12.6404C7.83354 12.6404 7.83354 12.6404 7.83354 12.6305L9.62021 10.4141C9.62021 10.4141 9.6495 10.3745 9.65438 10.3547C9.66903 10.33 9.68367 10.3052 9.69343 10.2805C9.69832 10.2755 9.69832 10.2706 9.69832 10.2706C9.71784 10.2211 9.72761 10.1667 9.72761 10.1172V7.92063C9.72761 7.67326 9.5421 7.46548 9.31755 7.46548H8.71223V7.01032H13.545C13.8282 7.01032 14.1162 6.86191 14.37 6.56507C14.5848 6.27318 14.6922 5.87739 14.6922 5.48656C14.6922 5.33814 14.8045 5.19467 14.9119 5.19467H21.4142C21.6534 5.18972 21.8926 4.96214 21.9317 4.69004V0.504625C21.9317 0.252312 21.7217 0.0296838 21.463 0.0049473C21.4484 0 21.4288 0 21.4093 0H14.8777C14.2626 0 13.7549 0.687675 13.7549 1.51882C13.7549 1.61777 13.7208 1.66724 13.6866 1.71671C13.6866 1.76619 13.6134 1.81566 13.545 1.81566H8.71223V0.628307C8.71223 0.356206 8.47303 0.123683 8.18989 0.123683H4.15768C3.87454 0.123683 3.63046 0.356206 3.63046 0.628307V7.46548H3.03002C2.80547 7.46548 2.61508 7.67821 2.61508 7.92558V10.1222C2.61508 10.1766 2.62973 10.231 2.64926 10.2755C2.65902 10.3052 2.67366 10.33 2.68831 10.3547C2.69319 10.3745 2.70783 10.3943 2.72248 10.4141L4.51403 12.6305H4.51892V13.7436C4.51892 13.8821 4.58238 14.0701 4.64584 14.1592L5.67098 15.3317V17.9092H4.84598C4.01123 17.9092 3.33268 18.5969 3.33268 19.4478C3.33268 19.616 3.36197 19.7793 3.41079 19.9327C2.62485 19.9821 2 20.65 2 21.4614C2 22.2727 2.67855 23 3.5133 23H20.4867C21.3215 23 22 22.3123 22 21.4614C22 20.6105 21.3215 19.9277 20.4867 19.9277ZM14.6971 1.56829C14.6971 1.42482 14.8094 1.2764 14.9168 1.2764H20.887V1.90966H14.8826C14.8094 1.90966 14.7313 1.91955 14.6629 1.93934C14.6873 1.81566 14.6971 1.69198 14.6971 1.56829ZM14.6971 3.47795C14.6971 3.33448 14.8094 3.18606 14.9168 3.18606H20.887V3.91826H14.8826C14.7996 3.91826 14.7215 3.92816 14.6434 3.95289C14.6776 3.79953 14.6971 3.64121 14.6971 3.47795ZM8.71711 3.09206H13.5499C13.6329 3.09206 13.7159 3.07722 13.7989 3.05248C13.7745 3.17122 13.7598 3.29985 13.7598 3.42848C13.7598 3.52742 13.7257 3.5769 13.6915 3.62637C13.6915 3.67584 13.6183 3.72532 13.5499 3.72532H8.71711V3.09206ZM8.71711 5.00172H13.5499C13.6378 5.00172 13.7257 4.98688 13.8184 4.95225C13.7793 5.10561 13.7598 5.26887 13.7598 5.43708C13.7598 5.53603 13.7257 5.5855 13.6915 5.63498C13.6915 5.68445 13.6183 5.73392 13.5499 5.73392H8.71711V5.00172ZM4.64096 1.09335H7.66756V7.40116H4.64096V1.09335ZM3.44496 8.38073H4.23578C4.26507 8.38073 4.28948 8.37578 4.31877 8.37083H8.90749V9.71155H3.44496V8.38073ZM4.01123 10.5922H8.40957L7.20869 12.0467H5.21211L4.01123 10.5922ZM5.36832 13.5605V12.9026H7.00854V13.5605L6.18843 14.644L5.36832 13.5605ZM4.84598 19.0224H10.8211C11.0505 19.0224 11.2409 19.2104 11.2409 19.4478C11.2409 19.6853 11.0505 19.8684 10.8211 19.8684H4.84598C4.61655 19.8684 4.43105 19.6804 4.43105 19.4478C4.43105 19.2153 4.61655 19.0224 4.84598 19.0224ZM20.4867 21.8869H3.5133C3.28387 21.8869 3.09836 21.6989 3.09836 21.4614C3.09836 21.2239 3.28387 21.0409 3.5133 21.0409H20.4867C20.7161 21.0409 20.9016 21.2289 20.9016 21.4614C20.9016 21.6939 20.7161 21.8869 20.4867 21.8869Z" fill="white"/>
<path d="M7.66747 1.09335H4.64087V7.40116H7.66747V1.09335Z" fill="#DB0025"/>
<path d="M7.00863 12.9026V13.5605L6.18852 14.644L5.36841 13.5605V12.9026H7.00863Z" fill="#DB0025"/>
</g>
<defs>
<clipPath id="clip0_2031_2467">
<rect width="20" height="23" fill="white" transform="translate(2)"/>
</clipPath>
</defs>
</svg>
