<svg width="24" height="24" viewBox="0 0 24 24" fill="none" xmlns="http://www.w3.org/2000/svg">
<g clip-path="url(#clip0_2031_2537)">
<path d="M12.8738 20.9952C12.9073 21 12.9457 21 12.9792 21C13.0175 21 13.0511 21 13.0894 20.9952H12.8738ZM4.3542 21C4.39253 21 4.42607 21 4.4644 20.9952H4.24878C4.28232 21 4.32065 21 4.3542 21Z" fill="#1B1B1B"/>
<path d="M23.5208 18.1507L22.9554 18.146C23.0081 17.9988 23.0417 17.8373 23.0417 17.6711V13.872C23.0417 13.5064 22.8979 13.174 22.6679 12.9223C22.8979 12.6706 23.0417 12.3382 23.0417 11.9725V8.17346C23.0417 7.3899 22.3948 6.74881 21.6042 6.74881H17.7708C16.9802 6.74881 16.3333 7.3899 16.3333 8.17346V11.9725C16.3333 12.3382 16.4771 12.6706 16.7071 12.9223C16.4771 13.174 16.3333 13.5064 16.3333 13.872V17.6711C16.3333 17.8373 16.3669 17.9988 16.4196 18.146H15.375V2.47488C15.375 2.2137 15.1594 2 14.8958 2H12.9792C12.7156 2 12.5 2.2137 12.5 2.47488V8.73857L11.3835 5.04874C10.8325 3.22519 9.17458 2.00475 7.25312 2.00475H3.39583C3.13229 2.00475 2.91667 2.21845 2.91667 2.47963V13.4019H2.4375C1.64687 13.4019 1 14.043 1 14.8265V18.6256C1 18.8868 1.21562 19.1005 1.47917 19.1005H2.00625C2.22187 20.15 3.13708 20.9478 4.24875 20.9953H4.46437C5.57604 20.9478 6.48646 20.15 6.70208 19.1005H10.6312C10.8469 20.15 11.7621 20.9478 12.8738 20.9953H13.0894C14.201 20.9478 15.1115 20.15 15.3271 19.1005H23.5208C23.7844 19.1005 24 18.8868 24 18.6256C24 18.3644 23.7844 18.1507 23.5208 18.1507ZM3.875 9.12322C3.875 8.86204 4.09062 8.64834 4.35417 8.64834C4.61771 8.64834 4.83333 8.86204 4.83333 9.12322V12.0437C4.83333 12.2669 5.01542 12.4474 5.24063 12.4474H7.22917C7.49271 12.4474 7.70833 12.6611 7.70833 12.9223V13.3972H3.875V9.12322ZM4.35896 20.0502H4.35417C3.56354 20.0455 2.91667 19.4044 2.91667 18.6208C2.91667 18.5639 2.92146 18.5069 2.93104 18.4499C2.93583 18.3882 2.955 18.3312 2.96938 18.2742C2.97417 18.2504 2.98375 18.2219 2.99333 18.1982C3.01729 18.1175 3.05083 18.0367 3.09396 17.9608C3.10833 17.937 3.12271 17.9085 3.13708 17.8848C3.25687 17.6948 3.41979 17.5286 3.61625 17.4099C3.63542 17.3957 3.65937 17.3862 3.68333 17.3719C3.76479 17.3292 3.85104 17.2959 3.93729 17.2674C3.96604 17.2579 3.99 17.2484 4.01875 17.2437C4.07625 17.2294 4.12896 17.2199 4.18646 17.2104C4.24396 17.2057 4.30146 17.201 4.35896 17.201C5.14958 17.201 5.79646 17.842 5.79646 18.6256C5.79646 19.4091 5.14958 20.0502 4.35896 20.0502ZM4.35417 16.2464C3.19937 16.2464 2.24104 17.0585 2.01583 18.1365H2.00625H1.95833V14.817C1.95833 14.5559 2.17396 14.3422 2.4375 14.3422H8.1875C8.45104 14.3422 8.66667 14.5559 8.66667 14.817V16.2417H4.35417V16.2464ZM11.0242 17.2674C11.0242 17.2674 11.0002 17.3054 10.9858 17.3244H10.9762C10.9044 17.4384 10.8373 17.5524 10.7846 17.6806C10.775 17.6996 10.7702 17.7138 10.7654 17.7328C10.7127 17.861 10.6696 17.9988 10.636 18.1365H6.70687C6.67812 17.9893 6.635 17.8563 6.5775 17.7281C6.5775 17.7091 6.56313 17.6948 6.55833 17.6758C6.50563 17.5524 6.43854 17.4336 6.36667 17.3197C6.35229 17.3007 6.34271 17.2817 6.32833 17.2627C6.31396 17.2389 6.29479 17.2152 6.28042 17.1915H11.0721C11.0721 17.1915 11.0385 17.2389 11.0242 17.2627V17.2674ZM9.62979 16.2417V14.817C9.62979 14.1997 9.22729 13.6773 8.67146 13.4779V12.9175C8.67146 12.134 8.02458 11.4929 7.23396 11.4929H5.79646V9.11847C5.79646 8.33492 5.14958 7.69383 4.35896 7.69383C4.19125 7.69383 4.02833 7.72707 3.87979 7.77931V2.94976H7.25312C8.74812 2.94976 10.0371 3.89953 10.4635 5.31942L12.5 12.0437V14.2567L10.5498 9.4224C10.5498 9.4224 10.5306 9.3939 10.521 9.37966L10.9235 8.98076C11.1104 8.79555 11.1104 8.49638 10.9235 8.31117C10.7367 8.12597 10.4348 8.12597 10.2479 8.31117L8.81042 9.73582C8.62354 9.92102 8.62354 10.2202 8.81042 10.4054C8.90625 10.5004 9.02604 10.5431 9.15062 10.5431C9.27521 10.5431 9.395 10.4956 9.49083 10.4054L9.7975 10.1015L12.2748 16.2417H9.62979ZM14.34 19.091C14.2058 19.4994 13.8656 19.8365 13.4535 19.9695C12.3035 20.3399 11.2446 19.2904 11.6183 18.1507C11.7525 17.7423 12.0927 17.4051 12.5048 17.2722C13.6548 16.9018 14.7137 17.9513 14.34 19.091ZM14.4167 16.7213C14.4167 16.7213 14.3687 16.6881 14.3448 16.6738C14.3256 16.6596 14.3065 16.6453 14.2873 16.6358C14.1723 16.5646 14.0573 16.4981 13.9327 16.4459C13.9135 16.4364 13.8992 16.4316 13.88 16.4269C13.7506 16.3747 13.6117 16.3319 13.4727 16.2987H13.4679V2.94976H14.4167V16.7213ZM19.2083 7.69858H20.1667V9.5981H19.2083V7.69858ZM22.0833 17.6711C22.0833 17.9323 21.8677 18.146 21.6042 18.146H17.7708C17.5073 18.146 17.2917 17.9323 17.2917 17.6711V13.872C17.2917 13.6108 17.5073 13.3972 17.7708 13.3972H18.25V15.7716C18.25 16.0327 18.4656 16.2464 18.7292 16.2464H20.6458C20.9094 16.2464 21.125 16.0327 21.125 15.7716V13.3972H21.6042C21.8677 13.3972 22.0833 13.6108 22.0833 13.872V17.6711ZM19.2083 15.2967V13.3972H20.1667V15.2967H19.2083ZM22.0833 11.9725C22.0833 12.2337 21.8677 12.4474 21.6042 12.4474H17.7708C17.5073 12.4474 17.2917 12.2337 17.2917 11.9725V8.17346C17.2917 7.91227 17.5073 7.69858 17.7708 7.69858H18.25V10.073C18.25 10.3342 18.4656 10.5479 18.7292 10.5479H20.6458C20.9094 10.5479 21.125 10.3342 21.125 10.073V7.69858H21.6042C21.8677 7.69858 22.0833 7.91227 22.0833 8.17346V11.9725Z" fill="#1B1B1B"/>
<path d="M20.1666 7.69858H19.2083V9.5981H20.1666V7.69858Z" fill="#DB0025"/>
<path d="M20.1666 13.3972H19.2083V15.2967H20.1666V13.3972Z" fill="#DB0025"/>
<path d="M7.70833 12.9223V13.3972H3.875V9.12323C3.875 8.86204 4.09062 8.64835 4.35417 8.64835C4.61771 8.64835 4.83333 8.86204 4.83333 9.12323V12.0437C4.83333 12.2669 5.01542 12.4474 5.24063 12.4474H7.22917C7.49271 12.4474 7.70833 12.6611 7.70833 12.9223Z" fill="#DB0025"/>
</g>
<defs>
<clipPath id="clip0_2031_2537">
<rect width="23" height="19" fill="white" transform="translate(1 2)"/>
</clipPath>
</defs>
</svg>
