<svg width="24" height="24" viewBox="0 0 24 24" fill="none" xmlns="http://www.w3.org/2000/svg">
<g clip-path="url(#clip0_2031_2443)">
<path d="M15.3848 4.10501C15.6656 4.10501 15.9063 4.35001 15.9063 4.63501C15.9063 4.92001 15.6656 5.16501 15.3848 5.16501C15.104 5.16501 14.8633 4.92001 14.8633 4.63501C14.8633 4.35001 15.104 4.10501 15.3848 4.10501Z" fill="#1B1B1B"/>
<path d="M22.2349 2.51H15.5855V1.53C15.5855 1.245 15.3448 1 15.0639 1H9.05641C8.78061 1 8.53489 1.245 8.53489 1.53V2.51H1.76013C1.28374 2.51 0.842457 2.71 0.521521 3.04C0.200585 3.365 0 3.815 0 4.305C0 5.29 0.80234 6.105 1.76013 6.105H6.01254V7.135C6.01254 7.17 6.01254 7.21 6.02257 7.245C6.03761 7.335 6.07773 7.42 6.13289 7.5L9.53782 11.45V13.755C9.53782 13.92 9.61805 14.085 9.7384 14.165L11.5437 15.57V22.465C11.5437 22.755 11.7794 23 12.0602 23C12.341 23 12.5817 22.755 12.5817 22.51V15.605L14.387 14.205C14.5023 14.125 14.5825 13.96 14.5825 13.8V11.31L17.7568 7.63L17.8671 7.5C17.9373 7.43 17.9824 7.31 17.9824 7.19C17.9875 7.185 17.9875 7.175 17.9875 7.165V6.15H22.1997C22.6761 6.15 23.1174 5.945 23.4785 5.58C23.7994 5.25 24 4.8 24 4.31C24 3.33 23.1977 2.51 22.2349 2.51ZM6.00752 5.045H1.80527C1.36398 5.045 1.04304 4.675 1.04304 4.265C1.04304 4.06 1.08316 3.9 1.24363 3.735C1.36398 3.61 1.56456 3.53 1.76013 3.53H6.00752V5.045ZM9.57794 2.02H14.5825V2.555H9.57794V2.02ZM13.6247 13.555L12.1003 14.7L10.621 13.555V11.755H13.6247V13.555ZM13.9156 10.65H10.2098L7.65733 7.665H16.468L13.9156 10.65ZM16.9494 6.685H7.05056V5.62C7.05056 5.62 7.05056 5.6 7.04555 5.59C7.05056 5.585 7.05056 5.58 7.05056 5.575V3.575H16.9494V6.685ZM22.7213 4.925C22.6009 5.045 22.4003 5.13 22.1997 5.13H17.9524V3.615H22.1596C22.5959 3.615 22.9168 3.985 22.9168 4.395C22.9168 4.595 22.8817 4.76 22.7213 4.925Z" fill="#1B1B1B"/>
<path d="M16.4679 7.66501L13.9155 10.65H10.2097L7.65723 7.66501H16.4679Z" fill="#DB0025"/>
<path d="M22.9169 4.39499C22.9169 4.59499 22.8818 4.75999 22.7213 4.92499C22.601 5.04499 22.4004 5.12999 22.1998 5.12999H17.9524V3.61499H22.1597C22.5959 3.61499 22.9169 3.98499 22.9169 4.39499Z" fill="#DB0025"/>
<path d="M6.00745 3.53V5.045H1.80519C1.3639 5.045 1.04297 4.675 1.04297 4.265C1.04297 4.06 1.08309 3.9 1.24355 3.735C1.3639 3.61 1.56449 3.53 1.76006 3.53H6.00745Z" fill="#DB0025"/>
<path d="M13.8655 5.13001H8.86088C8.58006 5.13001 8.33936 4.88501 8.33936 4.60001C8.33936 4.31501 8.58006 4.07001 8.86088 4.07001H13.8655C14.1463 4.07001 14.387 4.31501 14.387 4.60001C14.387 4.88501 14.1463 5.13001 13.8655 5.13001Z" fill="#1B1B1B"/>
</g>
<defs>
<clipPath id="clip0_2031_2443">
<rect width="24" height="22" fill="white" transform="translate(0 1)"/>
</clipPath>
</defs>
</svg>
