<svg width="24" height="24" viewBox="0 0 24 24" fill="none" xmlns="http://www.w3.org/2000/svg">
<g clip-path="url(#clip0_2031_2637)">
<path d="M2.71874 16.7333C2.71874 16.7333 2.69124 16.7381 2.67749 16.7381H2.68207L2.71874 16.7333Z" fill="white"/>
<path d="M21.79 15.7862C21.7075 13.9305 21.1163 12.1812 20.0804 10.6542C19.0263 9.13198 17.61 7.95288 15.9554 7.2232V6.40652C15.9508 6.33404 15.9463 6.26638 15.9325 6.19873C15.795 5.43522 15.135 4.83117 14.31 4.83117H13.8333C13.5492 4.33343 13.0083 4 12.4033 4H11.4683C10.8496 4 10.2996 4.34793 10.0246 4.865H9.59375C8.77333 4.865 8.08125 5.48837 7.96667 6.28088C7.95292 6.3582 7.94833 6.43552 7.94833 6.51767V7.30535C6.61 7.90456 5.37708 8.82754 4.44208 9.97765C3.42917 11.2147 2.71875 12.7176 2.38417 14.293C2.29708 14.7859 2.23292 15.2788 2.21 15.7862C1.5225 15.9166 1 16.5304 1 17.26V18.4971C1 19.3235 1.66917 20 2.49417 20H21.5013C22.3263 20 23 19.3235 23 18.4971V17.26C23 16.5304 22.4775 15.9215 21.79 15.7862ZM14.31 5.80731C14.7225 5.80731 15.0158 6.09725 15.0204 6.47418V8.84687C15.0204 9.25763 14.6858 9.56207 14.31 9.56207H14.0625C14.0625 9.06433 14.0533 8.0447 14.0533 5.80731H14.31ZM10.8313 5.46904C10.9046 5.13078 11.1658 4.90365 11.505 4.90365H12.44C12.7746 4.90365 13.0358 5.13078 13.1092 5.46904V5.61885C13.1092 10.0115 13.1092 9.90033 13.0725 10.0501C12.9992 10.2338 12.8479 10.4222 12.66 10.4995C12.5867 10.5334 12.4767 10.5334 12.4767 10.5334H11.4683C11.3079 10.5334 11.1338 10.4222 11.1338 10.4222C11.0192 10.3497 10.9046 10.1951 10.8679 10.0501C10.8313 9.85684 10.8313 10.2338 10.8313 5.61885V5.46904ZM8.88333 6.55633C8.88333 6.14074 9.2225 5.84114 9.59375 5.84114H9.82292V9.62972H9.59375C9.18583 9.62972 8.88333 9.29629 8.88333 8.91936V6.55633ZM7.94833 8.32981V8.8807C7.94833 9.78436 8.69542 10.5334 9.59375 10.5334H9.9925C10.0658 10.6832 10.1621 10.8233 10.2721 10.949C10.3454 11.0214 10.4554 11.0988 10.4921 11.1374C10.7533 11.3645 11.0925 11.4757 11.4683 11.4757H12.4812C13.0083 11.437 13.4942 11.2099 13.7921 10.7218C13.8471 10.6397 13.8608 10.572 13.8838 10.5334H14.31C15.2083 10.5334 15.9188 9.78435 15.9554 8.80821V8.24283C18.2608 9.38327 19.9292 11.4419 20.5892 13.8774H3.42458C4.07083 11.4805 5.73 9.45575 7.94833 8.32981ZM3.21375 14.8535H20.8C20.8458 15.1531 20.8779 15.4527 20.8917 15.7572H3.10833C3.12667 15.4576 3.16333 15.1531 3.21375 14.8535ZM22.065 18.5358C22.065 18.8354 21.8038 19.0963 21.5013 19.0963H2.49417C2.19625 19.0963 1.935 18.8354 1.935 18.5358V17.2939C1.935 16.9991 2.19167 16.7333 2.49417 16.7333H21.5013C21.7992 16.7333 22.065 16.9943 22.065 17.2939V18.5358Z" fill="white"/>
<path d="M20.8917 15.7572H3.1084C3.12673 15.4576 3.1634 15.1531 3.21382 14.8535H20.8001C20.8459 15.1531 20.878 15.4527 20.8917 15.7572Z" fill="#DB0025"/>
</g>
<defs>
<clipPath id="clip0_2031_2637">
<rect width="22" height="16" fill="white" transform="translate(1 4)"/>
</clipPath>
</defs>
</svg>
