<svg width="24" height="24" viewBox="0 0 24 24" fill="none" xmlns="http://www.w3.org/2000/svg">
<g clip-path="url(#clip0_2031_2577)">
<path d="M22.78 17.2409H20.6213C20.6717 17.0909 20.7038 16.9318 20.7038 16.7636V10.8C20.7038 10.15 20.195 9.62273 19.5671 9.62273H16.4917C16.5421 9.47273 16.5742 9.31364 16.5742 9.14545V3.18182C16.5742 2.53182 16.0654 2 15.4375 2H8.54417C7.91625 2 7.4075 2.53182 7.4075 3.18182V9.14545C7.4075 9.31364 7.43958 9.47273 7.49 9.62273H4.41458C3.78667 9.62273 3.27792 10.15 3.27792 10.8V16.7636C3.27792 16.9318 3.31 17.0909 3.36042 17.2409H1.22C1.10083 17.2409 1 17.3409 1 17.4682V21.7727C1 21.8955 1.09625 22 1.22 22H3.53C3.64917 22 3.75 21.9 3.75 21.7727V20.0955H10.625V21.7727C10.625 21.8955 10.7212 22 10.845 22H13.155C13.2742 22 13.375 21.9 13.375 21.7727V20.0955H20.25V21.7727C20.25 21.8955 20.3463 22 20.47 22H22.78C22.8992 22 23 21.9 23 21.7727V17.4682C23 17.3455 22.9038 17.2409 22.78 17.2409ZM17.9583 13.2V10.5727H19.5717C19.6908 10.5727 19.7917 10.6727 19.7917 10.8V17.0136C19.7917 17.1364 19.6954 17.2409 19.5717 17.2409H12.6783C12.5592 17.2409 12.4583 17.1409 12.4583 17.0136V10.8C12.4583 10.6773 12.5546 10.5727 12.6783 10.5727H14.2917V13.2C14.2917 13.8545 14.8004 14.3818 15.4283 14.3818H16.8217C17.4496 14.3818 17.9583 13.8545 17.9583 13.2ZM17.0417 10.5727V13.2C17.0417 13.3273 16.9454 13.4318 16.8217 13.4318H15.4283C15.3092 13.4318 15.2083 13.3318 15.2083 13.2V10.5727H17.0417ZM11.0833 2.95455H12.9167V5.58182C12.9167 5.70909 12.8204 5.81364 12.6967 5.81364H11.3033C11.1842 5.81364 11.0833 5.71364 11.0833 5.58182V2.95455ZM8.33333 3.18182C8.33333 3.05909 8.42958 2.95455 8.55333 2.95455H10.1667V5.58182C10.1667 6.23636 10.6754 6.76364 11.3033 6.76364H12.6967C13.3246 6.76364 13.8333 6.23636 13.8333 5.58182V2.95455H15.4467C15.5658 2.95455 15.6667 3.05455 15.6667 3.18182V9.39091C15.6667 9.51818 15.5704 9.62273 15.4467 9.62273H8.55333C8.43417 9.62273 8.33333 9.52273 8.33333 9.39091V3.18182ZM6.95833 10.5727H8.79167V13.2C8.79167 13.3273 8.69542 13.4318 8.57167 13.4318H7.17833C7.05917 13.4318 6.95833 13.3318 6.95833 13.2V10.5727ZM4.20833 10.8C4.20833 10.6773 4.30458 10.5727 4.42833 10.5727H6.04167V13.2C6.04167 13.8545 6.55042 14.3818 7.17833 14.3818H8.57167C9.19958 14.3818 9.70833 13.8545 9.70833 13.2V10.5727H11.3217C11.4408 10.5727 11.5417 10.6727 11.5417 10.8V17.0136C11.5417 17.1364 11.4454 17.2409 11.3217 17.2409H4.42833C4.30917 17.2409 4.20833 17.1409 4.20833 17.0136V10.8ZM2.83333 21.05H1.91667V20.0955H2.83333V21.05ZM12.4583 21.05H11.5417V20.0955H12.4583V21.05ZM22.0833 21.05H21.1667V20.0955H22.0833V21.05ZM22.0833 19.1455H1.91667V18.1909H22.0833V19.1455Z" fill="white"/>
<path d="M17.0416 10.5727V13.2C17.0416 13.3273 16.9453 13.4318 16.8216 13.4318H15.4283C15.3091 13.4318 15.2083 13.3318 15.2083 13.2V10.5727H17.0416Z" fill="#DB0025"/>
<path d="M8.79159 10.5727V13.2C8.79159 13.3273 8.69534 13.4318 8.57159 13.4318H7.17825C7.05909 13.4318 6.95825 13.3318 6.95825 13.2V10.5727H8.79159Z" fill="#DB0025"/>
<path d="M12.9166 2.95456V5.58183C12.9166 5.7091 12.8203 5.81365 12.6966 5.81365H11.3033C11.1841 5.81365 11.0833 5.71365 11.0833 5.58183V2.95456H12.9166Z" fill="#DB0025"/>
</g>
<defs>
<clipPath id="clip0_2031_2577">
<rect width="22" height="20" fill="white" transform="translate(1 2)"/>
</clipPath>
</defs>
</svg>
