<svg width="24" height="24" viewBox="0 0 24 24" fill="none" xmlns="http://www.w3.org/2000/svg">
<g clip-path="url(#clip0_2031_2554)">
<path d="M12.4924 7.02258C11.6819 7.02258 11.0234 7.67843 11.0234 8.48562C11.0234 9.29282 11.6819 9.95875 12.4924 9.95875C13.3028 9.95875 13.9715 9.29282 13.9715 8.48562C13.9715 7.67843 13.3028 7.02258 12.4924 7.02258ZM12.4924 9.03552C12.2239 9.03552 11.9909 8.79841 11.9909 8.53103C11.9909 8.26364 12.2239 8.02653 12.4924 8.02653C12.7608 8.02653 12.9989 8.26364 12.9989 8.53103C12.9989 8.79841 12.7608 9.03552 12.4924 9.03552Z" fill="#1B1B1B"/>
<path d="M13.7282 6.38692C13.7282 6.38692 13.6776 6.36169 13.6523 6.3516C13.6826 6.36674 13.7181 6.38692 13.7485 6.4071C13.7384 6.40205 13.7333 6.39701 13.7282 6.38692ZM14.0372 2.62842H10.9474C10.917 2.62842 10.8866 2.63346 10.8562 2.63851H14.1233C14.1233 2.63851 14.0676 2.62842 14.0372 2.62842Z" fill="#1B1B1B"/>
<path d="M21.8176 10.9526L18.2365 8.44527C18.1909 8.42005 18.1453 8.39987 18.0997 8.38978L14.7161 6.02369L14.7059 6.0136L14.4831 5.86225V3.50121H15.4202C15.6633 3.50121 15.8659 3.30445 15.8659 3.06734V0.428822C15.8659 0.196754 15.6633 0 15.4202 0H9.57985C9.33671 0 9.1341 0.196754 9.1341 0.428822V3.06734C9.1341 3.30445 9.33671 3.50121 9.57985 3.50121H10.5068V5.84712C10.4359 5.89252 10.37 5.94297 10.3093 5.99846L3.18235 10.9627C3.06585 11.0333 3 11.1645 3 11.3058V18.0257C3 18.1669 3.06585 18.2981 3.18235 18.3738L9.77739 22.9142C9.85337 22.9647 9.94961 22.9899 10.0357 22.9899L10.056 23C10.1725 23 10.2789 22.9546 10.365 22.8789C10.522 22.7377 10.5473 22.5005 10.4359 22.3341L7.47774 17.9046V13.2783L10.6486 11.1998C11.1754 11.5429 11.8136 11.7396 12.4924 11.7396C13.1712 11.7396 13.8246 11.5328 14.3615 11.1847L17.5324 13.2683V17.8945L14.5742 22.324C14.4628 22.4955 14.4881 22.7276 14.6452 22.8688C14.7313 22.9546 14.8376 22.9899 14.9541 22.9899L14.9643 22.9798C15.0605 22.9798 15.1466 22.9647 15.2226 22.9041L21.8176 18.3637C21.9342 18.288 22 18.1568 22 18.0156V11.2957C22 11.1595 21.9342 11.0333 21.8176 10.9526ZM10.0205 2.63852V0.862689H14.9744V2.63852H10.0205ZM13.5916 3.50121V5.39307C13.5004 5.3628 13.4143 5.33757 13.3231 5.31235C13.2319 5.29217 13.1408 5.27199 13.0496 5.25685C12.6849 5.19631 12.305 5.19631 11.9352 5.25685C11.844 5.27199 11.7529 5.29217 11.6617 5.31235C11.5705 5.33757 11.4793 5.3628 11.3882 5.39307V3.50121H13.5916ZM6.77366 12.6982C6.65716 12.7789 6.58118 12.9101 6.58118 13.0513V18.0358C6.58118 18.1215 6.60144 18.2073 6.64703 18.2729L8.41482 20.9265L3.88643 17.8087V11.5328L9.19995 7.82979C9.14929 8.04168 9.12903 8.25356 9.12903 8.47554C9.12903 9.29283 9.44308 10.0395 9.95468 10.6096L6.77366 12.6982ZM12.4924 10.8669C11.1298 10.8669 10.0205 9.78723 10.0205 8.46545C10.0205 7.75916 10.3346 7.12349 10.836 6.68458L11.1856 6.43738L11.2058 6.42729H11.2109C11.454 6.28098 11.7174 6.18008 11.9859 6.11954C12.3151 6.05396 12.6596 6.05396 12.9888 6.1145C12.9939 6.1145 12.9989 6.1145 13.004 6.11954C13.1762 6.15486 13.3383 6.20531 13.4953 6.27594C13.5511 6.29612 13.6017 6.32134 13.6524 6.35161C13.6777 6.3617 13.703 6.37179 13.7283 6.38693C13.7334 6.39702 13.7385 6.40206 13.7486 6.40711C13.7537 6.40711 13.7638 6.42224 13.7739 6.42729L14.1538 6.68962L14.164 6.69971C14.6553 7.13863 14.9643 7.7642 14.9643 8.46545C14.9643 9.78723 13.8499 10.8669 12.4924 10.8669ZM21.1237 17.8037L16.5953 20.9164L18.3631 18.2628C18.3986 18.1871 18.429 18.1114 18.429 18.0257V13.0412C18.429 12.905 18.3631 12.7739 18.2365 12.6881L15.0453 10.5894C15.5468 10.0193 15.8507 9.28274 15.8507 8.47554C15.8507 8.25356 15.8304 8.03663 15.7849 7.82474L17.7147 9.1667C17.7553 9.19193 17.7958 9.21715 17.8414 9.23229L21.1237 11.5227V17.8037Z" fill="#1B1B1B"/>
<path d="M14.9744 0.862701V2.63853H14.1234C14.1234 2.63853 14.0677 2.62844 14.0373 2.62844H10.9475C10.9171 2.62844 10.8867 2.63348 10.8563 2.63853H10.0205V0.862701H14.9744Z" fill="#DB0025"/>
<path d="M12.999 8.53105C12.999 8.79843 12.7609 9.03554 12.4924 9.03554C12.224 9.03554 11.991 8.79843 11.991 8.53105C11.991 8.26366 12.224 8.02655 12.4924 8.02655C12.7609 8.02655 12.999 8.26366 12.999 8.53105Z" fill="#DB0025"/>
<path d="M14.4781 5.84206V5.86224L14.701 6.01359C14.6301 5.95305 14.5591 5.89251 14.4781 5.84206ZM13.3232 5.31233C13.4144 5.33756 13.5005 5.36278 13.5917 5.39305C13.5056 5.35774 13.4144 5.32747 13.3232 5.31233ZM12.4925 5.20639C12.3 5.20639 12.1126 5.22153 11.9353 5.25684C12.3051 5.1963 12.685 5.1963 13.0497 5.25684C12.8724 5.22153 12.685 5.20639 12.4925 5.20639Z" fill="#1B1B1B"/>
</g>
<defs>
<clipPath id="clip0_2031_2554">
<rect width="19" height="23" fill="white" transform="translate(3)"/>
</clipPath>
</defs>
</svg>
