<svg width="24" height="24" viewBox="0 0 24 24" fill="none" xmlns="http://www.w3.org/2000/svg">
<g clip-path="url(#clip0_2031_2643)">
<path d="M22.5738 9.33316H11.9954C11.7525 9.33316 11.5692 9.52323 11.5692 9.76558V10.0364C11.1567 9.73706 10.4646 9.11932 9.91 8.5491L9.57542 8.25449C9.23167 7.95512 8.86042 7.69852 8.44792 7.49894C7.76958 7.17582 7.01333 7 6.27083 7H3.98833C3.82792 7 3.695 7.08078 3.63083 7.21383L3.60333 7.18532H1.42625C1.18792 7.18532 1 7.3754 1 7.61774V8.91499C1 9.15734 1.18792 9.34741 1.42625 9.34741H3.60333C3.68125 9.46621 3.81417 9.56125 3.96083 9.56125H5.60625C6.0325 9.56125 6.445 9.62777 6.84375 9.75132C7.1875 9.86061 7.5175 10.0079 7.82458 10.2122H3.96083C3.80042 10.2122 3.6675 10.293 3.60333 10.4261H1.42625C1.18792 10.4261 1 10.6162 1 10.8585V12.1558C1 12.3981 1.18792 12.5834 1.42625 12.5834H3.60333C3.68125 12.707 3.81417 12.802 3.96083 12.802H7.82458C7.16 13.2202 6.40375 13.4483 5.60625 13.4483H3.96083C3.80042 13.4483 3.6675 13.529 3.60333 13.6668H1.42625C1.18792 13.6668 1 13.8522 1 14.0993V15.3537C1 15.5961 1.18792 15.7862 1.42625 15.7862H3.60333C3.68125 15.905 3.81417 16 3.96083 16H6.24333C7.46708 16 8.64958 15.5533 9.56167 14.7313C10.2538 14.1088 11.0787 13.4245 11.5692 13.0444V13.2059C11.5692 13.4483 11.7525 13.6383 11.9954 13.6383H22.5738C22.8121 13.6383 23 13.4483 23 13.2059V9.76558C23 9.52323 22.8121 9.33316 22.5738 9.33316ZM3.53458 8.46832H1.84792V8.0359H3.53458V8.46832ZM3.53458 11.6948H1.84792V11.2624H3.53458V11.6948ZM3.53458 14.9213H1.84792V14.4889H3.53458V14.9213ZM9.02083 9.97941C9.04375 9.94139 9.07125 9.91288 9.09875 9.87487C9.1125 9.84636 9.14 9.81785 9.15375 9.79409C9.17667 9.75132 9.20417 9.72281 9.23167 9.69905C9.24542 9.67054 9.27292 9.65628 9.28667 9.62777L9.36458 9.54699C9.36458 9.54699 9.40583 9.50898 9.41958 9.49472C9.4425 9.46621 9.47 9.44245 9.51125 9.41394C9.51125 9.41394 9.53875 9.38543 9.5525 9.38543C9.86875 9.69905 10.1483 9.96515 10.4142 10.198H9.19042L8.99333 10.0222C8.99333 10.0222 9.00708 9.99366 9.02083 9.97941ZM5.12958 7.86008C5.07458 7.93136 5.03792 7.98363 4.98292 8.05016H4.95542V8.06441C4.905 8.13094 4.86375 8.19747 4.8225 8.26874C4.8225 8.27825 4.80875 8.2925 4.795 8.30676C4.75833 8.37328 4.71708 8.43031 4.67583 8.49683C4.67583 8.49683 4.67583 8.51109 4.66667 8.52534C4.63917 8.57761 4.59792 8.62988 4.57042 8.67265V8.70116H4.41V7.83633H5.14333C5.14333 7.83633 5.14333 7.85058 5.12958 7.86008ZM7.23792 8.15945C7.23792 8.15945 7.22875 8.17371 7.215 8.18796C7.16 8.25449 7.11875 8.30676 7.06833 8.37328C7.06833 8.37328 7.05458 8.4018 7.04083 8.41605V8.43031C7.04083 8.43031 6.94917 8.5491 6.90792 8.60612C6.90792 8.60612 6.89417 8.62988 6.88042 8.64414C6.84375 8.70116 6.8025 8.76769 6.775 8.81996C6.39 8.72492 6.005 8.68691 5.60625 8.68691H5.54208C5.54208 8.68691 5.54208 8.67265 5.55583 8.65839C5.565 8.62988 5.5925 8.60612 5.60625 8.57761C5.60625 8.56336 5.62 8.5491 5.63375 8.53485C5.66125 8.51109 5.675 8.46832 5.69792 8.44456C5.69792 8.44456 5.71167 8.43031 5.72542 8.41605C5.75292 8.37328 5.79417 8.33527 5.82167 8.2925C5.82167 8.2925 5.83083 8.27825 5.84458 8.26874C5.87208 8.24023 5.89958 8.21172 5.91333 8.18796C5.91333 8.18796 5.94083 8.15945 5.94083 8.1452C5.96375 8.11668 5.9775 8.10718 6.005 8.07867C6.005 8.07867 6.0325 8.05016 6.04625 8.0359C6.06 8.0264 6.08292 7.99789 6.09667 7.98363C6.09667 7.98363 6.12417 7.95512 6.13792 7.95512C6.16542 7.94087 6.17917 7.91711 6.20667 7.90285C6.20667 7.90285 6.21583 7.8886 6.22958 7.87434C6.25708 7.85058 6.29833 7.83633 6.32583 7.80781C6.68333 7.80781 7.05458 7.87434 7.39833 7.96938C7.34792 8.0264 7.29292 8.09292 7.23792 8.15945ZM7.6 9.10507C7.65042 9.02429 7.70542 8.95301 7.75583 8.88648C7.75583 8.87223 7.78333 8.86272 7.79708 8.84847C7.83833 8.79145 7.87958 8.73918 7.91625 8.70116C7.93 8.67265 7.9575 8.65839 7.97125 8.64414C7.99875 8.60612 8.03542 8.57761 8.06292 8.53485C8.07667 8.52534 8.10417 8.49683 8.11792 8.48258C8.14083 8.45407 8.18208 8.43031 8.20958 8.4018C8.20958 8.4018 8.23708 8.38754 8.25083 8.37328C8.47542 8.51109 8.7 8.65839 8.90167 8.81996L8.87417 8.84847C8.84667 8.86272 8.83292 8.88648 8.80542 8.91499C8.76875 8.95301 8.7275 8.99578 8.7 9.02429C8.6725 9.04805 8.65875 9.07656 8.63583 9.09081C8.59458 9.12883 8.56708 9.17159 8.52583 9.20961C8.50292 9.23812 8.48917 9.26663 8.46167 9.29039C8.43417 9.33316 8.3975 9.37592 8.37 9.41394C8.35625 9.44245 8.32875 9.46621 8.315 9.48046L8.30583 9.48997C8.30583 9.48997 8.31042 9.49472 8.315 9.49472H8.30125H8.30583C8.08583 9.34266 7.8475 9.20961 7.6 9.10507ZM9.00708 14.0707C8.23708 14.7455 7.26542 15.1209 6.24333 15.1209H4.38708V14.2703H5.60625C6.83 14.2703 8.0125 13.8284 8.92458 13.0063L9.19042 12.7592H10.5333C10.1483 13.0729 9.65792 13.491 9.00708 14.0707ZM11.5829 11.9087H4.38708V11.0486H11.5829V11.9087ZM22.1521 12.7735H12.4171V10.198H22.1521V12.7735Z" fill="black"/>
<path d="M11.5828 11.0486H4.38696V11.9087H11.5828V11.0486Z" fill="#DB0025"/>
</g>
<defs>
<clipPath id="clip0_2031_2643">
<rect width="22" height="9" fill="white" transform="translate(1 7)"/>
</clipPath>
</defs>
</svg>
