<svg width="24" height="24" viewBox="0 0 24 24" fill="none" xmlns="http://www.w3.org/2000/svg">
<g clip-path="url(#clip0_2031_2614)">
<path d="M18.5535 10.0958C18.5202 10.0958 18.4493 10.0958 18.416 10.0625L13.1982 8.3625C12.9523 8.29583 12.8482 8.05416 12.919 7.82083C12.9899 7.58333 13.2316 7.47916 13.4733 7.54583L18.691 9.24583C18.9369 9.3125 19.0411 9.55416 18.9703 9.7875C18.8994 9.95416 18.7286 10.0958 18.5535 10.0958Z" fill="white"/>
<path d="M18.5535 11.7958C18.5202 11.7958 18.4493 11.7958 18.416 11.7625L13.1982 10.0625C12.9523 9.99584 12.8482 9.75418 12.919 9.52084C12.9899 9.28334 13.2316 9.17918 13.4733 9.24584L18.691 10.9458C18.9369 11.0125 19.0411 11.2542 18.9703 11.4875C18.8994 11.6542 18.7286 11.7958 18.5535 11.7958Z" fill="white"/>
<path d="M18.5535 13.4958C18.5202 13.4958 18.4493 13.4958 18.416 13.4625L13.1982 11.7625C12.9523 11.6958 12.8482 11.4542 12.919 11.2208C12.9899 10.9833 13.2316 10.8792 13.4733 10.9458L18.691 12.6458C18.9369 12.7125 19.0411 12.9542 18.9703 13.1875C18.8994 13.3542 18.7286 13.4958 18.5535 13.4958Z" fill="white"/>
<path d="M18.5535 15.2C18.5202 15.2 18.4493 15.2 18.416 15.1667L13.1982 13.4667C12.9523 13.4 12.8482 13.1583 12.919 12.925C12.9899 12.6875 13.2316 12.5833 13.4733 12.65L18.691 14.35C18.9369 14.4167 19.0411 14.6583 18.9703 14.8917C18.8994 15.0583 18.7286 15.2 18.5535 15.2Z" fill="white"/>
<path d="M21.9959 17.6125C21.9959 17.7833 21.8917 17.9542 21.7167 17.9875L17.7867 19.45C17.7867 19.4167 17.72 19.45 17.6825 19.45H16.9198C16.674 19.45 16.4656 19.2458 16.4656 19.0083C16.4656 18.9917 16.4656 18.975 16.4697 18.9625C16.4781 18.8667 16.5198 18.7792 16.5864 18.7125C16.674 18.6208 16.7906 18.5667 16.9198 18.5667H17.6158L17.645 18.5542L20.4664 17.5083L18.1743 16.5417L17.4783 16.25C17.3824 16.2042 17.3074 16.1292 17.2657 16.0417C17.2157 15.9375 17.2074 15.8167 17.2657 15.7083C17.3699 15.5042 17.6158 15.4 17.82 15.5042L18.1743 15.6583L21.75 17.2042C21.925 17.275 22.0292 17.4458 21.9959 17.6125Z" fill="white"/>
<path d="M15.5612 19C15.5612 19.2417 15.3528 19.4417 15.1111 19.4417H6.69264C5.89248 21.0083 4.2588 21.9917 2.45009 21.9917V22C2.20421 22 2 21.7958 2 21.5583V18.3917C2 18.1542 2.20838 17.95 2.45009 17.95H3.25026C3.38779 17.95 3.52949 17.8833 3.63367 17.8167C3.73786 17.75 3.7712 17.575 3.7712 17.4417C3.7712 17.1667 3.52532 16.9333 3.25026 16.9333H2.45009C2.20421 16.9333 2 16.7292 2 16.4917V13.2583C2 13.0208 2.20838 12.8167 2.45009 12.8167C4.2588 12.8167 5.89248 13.8 6.69264 15.3667H14.4484C14.6401 15.3667 14.811 15.4917 14.8693 15.6625C14.8902 15.7083 14.8985 15.7583 14.8985 15.8083C14.8985 15.8583 14.8902 15.9083 14.8693 15.9542C14.8068 16.125 14.6401 16.25 14.4484 16.25H6.45093C6.28006 16.25 6.13836 16.15 6.06751 16.0125C5.51323 14.7542 4.29631 13.9042 2.90436 13.7292V16.0792H3.25443C4.02125 16.0792 4.64638 16.6917 4.64638 17.4375C4.64638 17.8125 4.50469 18.1542 4.22546 18.3917C3.94624 18.6625 3.60033 18.8 3.25443 18.8H2.90436V21.0792C4.29631 20.9458 5.47989 20.0583 6.06751 18.8C6.13836 18.6292 6.27589 18.5583 6.45093 18.5583H15.1111C15.2778 18.5583 15.4236 18.65 15.4986 18.7833L15.5528 18.9292C15.557 18.9542 15.5612 18.975 15.5612 19Z" fill="white"/>
<path d="M14.9026 17.2375H14.8693V15.9542C14.8068 16.125 14.6401 16.25 14.4484 16.25H13.9983V17.3083C13.9983 17.3417 13.9983 17.4083 14.0358 17.4417L14.4692 18.5583H15.111C15.2777 18.5583 15.4236 18.65 15.4986 18.7833L14.9026 17.2375ZM20.3287 2H17.0239C16.778 2 16.5738 2.20417 16.5738 2.44167V3.225C16.5738 3.49583 16.3321 3.73333 16.0529 3.73333C15.9153 3.73333 15.7736 3.7 15.6694 3.6C15.5986 3.5 15.5319 3.35833 15.5319 3.225V2.44167C15.5319 2.20417 15.3235 2 15.0777 2H11.8436C11.5978 2 11.3936 2.20417 11.3936 2.44167C11.3936 4.175 12.3979 5.80833 13.9983 6.59167V17.3083C13.9983 17.3417 13.9983 17.4083 14.0358 17.4417L14.4692 18.5583L14.8109 19.4417L15.5277 21.2833C15.5944 21.4542 15.7611 21.55 15.9278 21.5583H15.9487C16.0862 21.5583 16.2612 21.4542 16.3988 21.2833L17.2364 19.45L17.6449 18.5542L18.1408 17.475C18.1741 17.4083 18.1741 17.375 18.1741 17.3083V6.59167C19.7745 5.80833 20.783 4.20833 20.783 2.44167C20.783 2.20417 20.5705 2 20.3287 2ZM17.5115 5.97917C17.3698 6.05 17.2656 6.1875 17.2656 6.35417V17.2375L16.5863 18.7083L16.4696 18.9625L15.9778 20.0292L15.5528 18.9292L15.4986 18.7833L14.9026 17.2375H14.8693V6.35417C14.8693 6.1875 14.7984 6.05 14.6234 5.97917C13.3356 5.40417 12.4354 4.24583 12.2937 2.8875H14.6234V3.22917C14.6234 3.56667 14.7609 3.90417 15.0401 4.17917C15.2819 4.45417 15.6319 4.5875 16.0154 4.5875C16.778 4.5875 17.4031 3.975 17.4031 3.22917V2.8875H19.8411C19.6661 4.24583 18.7993 5.4375 17.5115 5.97917ZM14.9026 17.2375H14.8693V15.9542C14.8068 16.125 14.6401 16.25 14.4484 16.25H13.9983V17.3083C13.9983 17.3417 13.9983 17.4083 14.0358 17.4417L14.4692 18.5583H15.111C15.2777 18.5583 15.4236 18.65 15.4986 18.7833L14.9026 17.2375Z" fill="white"/>
<path d="M20.4664 17.5083L17.645 18.5542L18.141 17.475C18.1743 17.4083 18.1743 17.375 18.1743 17.3083V16.5417L20.4664 17.5083Z" fill="#DB0025"/>
<path d="M8.97223 16.25L8.18456 18.5583H6.45087C6.27583 18.5583 6.1383 18.6292 6.06746 18.8C5.47983 20.0583 4.29625 20.9458 2.9043 21.0792V18.8H3.25437C3.60028 18.8 3.94618 18.6625 4.22541 18.3917C4.50463 18.1542 4.64633 17.8125 4.64633 17.4375C4.64633 16.6917 4.0212 16.0792 3.25437 16.0792H2.9043V13.7292C4.29625 13.9042 5.51317 14.7542 6.06746 16.0125C6.1383 16.15 6.28 16.25 6.45087 16.25H8.97223Z" fill="#DB0025"/>
<path d="M10.2768 15.1292L10.1976 15.3667L9.89334 16.25L9.10985 18.5583L8.80978 19.4417L8.53889 20.2333C8.47221 20.4375 8.29301 20.5375 8.12214 20.5375C8.0888 20.5375 8.01795 20.5375 7.98461 20.5042C7.73873 20.4375 7.63454 20.2 7.70539 19.9625L7.88459 19.4417L8.18465 18.5583L8.97232 16.25L9.27238 15.3667L9.44325 14.8625C9.50993 14.6208 9.75581 14.5208 9.99753 14.5875C10.2434 14.6542 10.3476 14.8958 10.2768 15.1292Z" fill="white"/>
<path d="M10.7102 16.25L9.92253 18.5583H9.10986L9.89336 16.25H10.7102Z" fill="#DB0025"/>
<path d="M12.0145 15.1292L11.9354 15.3667L11.6311 16.25L10.8476 18.5583L10.5476 19.4417L10.2767 20.2333C10.21 20.4375 10.0308 20.5375 9.85993 20.5375C9.82659 20.5375 9.75574 20.5375 9.7224 20.5042C9.47652 20.4375 9.37233 20.2 9.44318 19.9625L9.62238 19.4417L9.92245 18.5583L10.7101 16.25L11.0102 15.3667L11.181 14.8625C11.2519 14.6208 11.4936 14.5208 11.7353 14.5875C11.9812 14.6542 12.0854 14.8958 12.0145 15.1292Z" fill="white"/>
<path d="M12.448 16.25L11.6603 18.5583H10.8477L11.6312 16.25H12.448Z" fill="#DB0025"/>
<path d="M14.4692 18.5583H12.5854L13.3731 16.25H13.9982V17.3083C13.9982 17.3417 13.9982 17.4083 14.0358 17.4417L14.4692 18.5583Z" fill="#DB0025"/>
<path d="M13.7566 15.1292L13.6774 15.3667L13.3732 16.25L12.5855 18.5583L12.2855 19.4417L12.0146 20.2333C11.9479 20.4375 11.7729 20.5375 11.5978 20.5375C11.5645 20.5375 11.4936 20.5375 11.4603 20.5042C11.2144 20.4375 11.1144 20.2 11.1811 19.9625L11.3603 19.4417L11.6603 18.5583L12.448 16.25L12.7481 15.3667L12.9189 14.8625C12.9898 14.6208 13.2357 14.5208 13.4774 14.5875C13.7191 14.6542 13.8233 14.8958 13.7566 15.1292Z" fill="white"/>
</g>
<defs>
<clipPath id="clip0_2031_2614">
<rect width="20" height="20" fill="white" transform="translate(2 2)"/>
</clipPath>
</defs>
</svg>
