<svg width="48" height="46" viewBox="0 0 48 46" fill="none" xmlns="http://www.w3.org/2000/svg">
<g clip-path="url(#clip0_2031_2490)">
<path d="M33.57 17.0358H32.5892V16.4606C32.5892 16.2095 32.3417 15.9858 32.0483 15.9858H31.8283V13.2147C31.8283 12.9956 31.6725 12.8129 31.4479 12.7764C26.9929 11.7538 23.2208 11.8314 20.8054 12.046C18.2021 12.2697 16.6529 12.7445 16.575 12.7764C16.3458 12.8495 16.2358 13.0366 16.2358 13.2147V15.9858H15.8692C15.5758 15.9858 15.3283 16.2049 15.3283 16.4606V17.0906C15.2871 17.0769 15.2413 17.0723 15.1954 17.0723H14.43C13.6508 17.0723 13 17.6566 13 18.3506V22.1808C13 22.8747 13.6508 23.459 14.43 23.459H15.1954C15.2413 23.459 15.2871 23.4545 15.3283 23.4499V24.1986C15.3283 24.4497 15.5758 24.6734 15.8692 24.6734H16.2633V31.4938C16.2633 31.7129 16.4146 31.859 16.6025 31.9321C16.6758 31.964 18.4404 32.5119 21.1858 32.7675C22.0521 32.8406 23.065 32.9136 24.1879 32.9136H24.1925C26.3375 32.9136 28.8492 32.699 31.48 31.964C31.6679 31.8956 31.8192 31.7495 31.8192 31.5303V24.6734H32.0483C32.3417 24.6734 32.5479 24.4908 32.5892 24.2351V23.459H33.57C34.3492 23.459 35 22.8747 35 22.1442V18.314C35 17.6201 34.3492 17.0358 33.57 17.0358ZM15.3283 22.6008C15.2871 22.5871 15.2413 22.5825 15.1954 22.5825H14.43C14.1825 22.5825 14.0221 22.4364 14.0221 22.2173V18.3871C14.0221 18.1634 14.1871 18.0219 14.43 18.0219H15.1954C15.2413 18.0219 15.2871 18.0173 15.3283 18.0036V22.6008ZM17.2167 13.5799C18.5779 13.2512 23.8992 12.1236 30.9208 13.6164V15.9858H17.2167V13.5799ZM30.8429 31.1651C27.2358 32.1558 23.7021 32.0782 21.3325 31.859C19.3433 31.6764 17.8767 31.3112 17.2396 31.1651V24.6734H30.8429V31.1651ZM31.5488 23.7603H16.4146V16.9353H31.5488V23.7603ZM33.9779 22.1442C33.9779 22.3679 33.8129 22.5095 33.57 22.5095H32.5892V17.9853H33.57C33.8175 17.9853 33.9779 18.1314 33.9779 18.3506V22.1442Z" fill="white"/>
<path d="M31.5487 16.9354H16.4146V23.7604H31.5487V16.9354Z" fill="#DB0025"/>
<path d="M19.1324 26.495H18.6008C18.312 26.495 18.0691 26.2758 18.0691 26.0202C18.0691 25.7645 18.312 25.5454 18.6008 25.5454H19.1324C19.4212 25.5454 19.6641 25.7645 19.6641 26.0202C19.6641 26.2758 19.4212 26.495 19.1324 26.495Z" fill="white"/>
<path d="M21.713 26.495H21.1813C20.8926 26.495 20.6497 26.2758 20.6497 26.0202C20.6497 25.7645 20.8926 25.5454 21.1813 25.5454H21.713C22.0017 25.5454 22.2447 25.7645 22.2447 26.0202C22.2447 26.2758 22.0017 26.495 21.713 26.495Z" fill="white"/>
<path d="M24.2474 26.495H23.7157C23.427 26.495 23.1841 26.2758 23.1841 26.0202C23.1841 25.7645 23.427 25.5454 23.7157 25.5454H24.2474C24.5362 25.5454 24.7791 25.7645 24.7791 26.0202C24.7791 26.2758 24.5362 26.495 24.2474 26.495Z" fill="white"/>
<path d="M26.8233 26.495H26.2917C26.0029 26.495 25.76 26.2758 25.76 26.0202C25.76 25.7645 26.0029 25.5454 26.2917 25.5454H26.8233C27.1121 25.5454 27.355 25.7645 27.355 26.0202C27.355 26.2758 27.1121 26.495 26.8233 26.495Z" fill="white"/>
<path d="M29.358 26.495H28.8263C28.5376 26.495 28.2947 26.2758 28.2947 26.0202C28.2947 25.7645 28.5376 25.5454 28.8263 25.5454H29.358C29.6468 25.5454 29.8897 25.7645 29.8897 26.0202C29.8897 26.2758 29.6468 26.495 29.358 26.495Z" fill="white"/>
<path d="M19.1324 15.1139H18.6008C18.312 15.1139 18.0691 14.8947 18.0691 14.6391C18.0691 14.3834 18.312 14.1643 18.6008 14.1643H19.1324C19.4212 14.1643 19.6641 14.3834 19.6641 14.6391C19.6641 14.8947 19.4212 15.1139 19.1324 15.1139Z" fill="white"/>
<path d="M21.713 15.1139H21.1813C20.8926 15.1139 20.6497 14.8947 20.6497 14.6391C20.6497 14.3834 20.8926 14.1643 21.1813 14.1643H21.713C22.0017 14.1643 22.2447 14.3834 22.2447 14.6391C22.2034 14.8947 22.0017 15.1139 21.713 15.1139Z" fill="white"/>
<path d="M24.2474 15.1139H23.7157C23.427 15.1139 23.1841 14.8947 23.1841 14.6391C23.1841 14.3834 23.427 14.1643 23.7157 14.1643H24.2474C24.5362 14.1643 24.7791 14.3834 24.7791 14.6391C24.7791 14.8947 24.5362 15.1139 24.2474 15.1139Z" fill="white"/>
<path d="M26.8233 15.1139H26.2917C26.0029 15.1139 25.76 14.8947 25.76 14.6391C25.76 14.3834 26.0029 14.1643 26.2917 14.1643H26.8233C27.1121 14.1643 27.355 14.3834 27.355 14.6391C27.3138 14.8947 27.1121 15.1139 26.8233 15.1139Z" fill="white"/>
<path d="M29.358 15.1139H28.8263C28.5376 15.1139 28.2947 14.8947 28.2947 14.6391C28.2947 14.3834 28.5376 14.1643 28.8263 14.1643H29.358C29.6468 14.1643 29.8897 14.3834 29.8897 14.6391C29.8897 14.8947 29.6468 15.1139 29.358 15.1139Z" fill="white"/>
</g>
<defs>
<clipPath id="clip0_2031_2490">
<rect width="22" height="21" fill="white" transform="translate(13 11.9137)"/>
</clipPath>
</defs>
</svg>
