<svg width="24" height="24" viewBox="0 0 24 24" fill="none" xmlns="http://www.w3.org/2000/svg">
<g clip-path="url(#clip0_2031_2521)">
<path d="M22.5265 1H1.47348C1.22 1 1 1.22034 1 1.4742V22.521C1 22.7749 1.22 23 1.47348 23H22.5265C22.7417 23 22.9665 22.7797 23 22.521V1.4742C23 1.22034 22.7848 1 22.5265 1ZM7.4087 22.0803H1.91348V1.91487H2.83652C2.83652 1.91487 2.83174 1.92924 2.83174 1.93882V4.19007C2.83174 4.44394 3.05174 4.66427 3.30522 4.66427C3.52522 4.66427 3.74522 4.44873 3.78348 4.19007V1.93882C3.78348 1.93882 3.78348 1.92445 3.7787 1.91487H5.58174C5.58174 1.91487 5.57696 1.92924 5.57696 1.93882V5.10973C5.57696 5.3636 5.79696 5.58393 6.05044 5.58393C6.27044 5.57914 6.49044 5.3636 6.5287 5.10494V1.93882C6.5287 1.93882 6.5287 1.92445 6.52391 1.91487H7.4087V22.0803ZM15.6443 22.0803H13.8509V19.7716C13.8509 19.5177 13.6309 19.2974 13.3774 19.2974C13.1239 19.2974 12.8991 19.513 12.8991 19.7716V22.0803H11.1057V18.8567C11.1057 18.6029 10.8857 18.3825 10.6274 18.3825C10.3691 18.3825 10.1539 18.5981 10.1539 18.8567V22.0803H8.32217V1.91487H15.6443V22.0803ZM22.0483 22.0468H16.5961V1.91487H17.4713V4.19007C17.4713 4.44394 17.6913 4.66427 17.9496 4.66427C18.1648 4.66427 18.3848 4.44873 18.423 4.19007V1.91487H20.2165V5.10973C20.2165 5.3636 20.4365 5.58393 20.6948 5.58393C20.91 5.57914 21.1348 5.3636 21.1683 5.10494V1.91487H22.0483V22.0468Z" fill="white"/>
<path d="M11.981 2.7962C11.2157 2.7962 10.594 3.41889 10.594 4.19006C10.594 4.96124 11.2157 5.58392 11.981 5.58392C12.7462 5.58392 13.3775 4.96124 13.3775 4.19006C13.3775 3.41889 12.7462 2.7962 11.981 2.7962ZM11.981 4.70258C11.7275 4.70258 11.5075 4.48225 11.5075 4.22838C11.5075 3.97452 11.7227 3.74939 11.981 3.74939C12.2392 3.74939 12.4592 3.96973 12.4592 4.22838C12.4592 4.48704 12.2344 4.70258 11.981 4.70258Z" fill="white"/>
<path d="M12.4591 4.22838C12.4591 4.48224 12.2343 4.70258 11.9808 4.70258C11.7273 4.70258 11.5073 4.48224 11.5073 4.22838C11.5073 3.97451 11.7225 3.74939 11.9808 3.74939C12.2391 3.74939 12.4591 3.96972 12.4591 4.22838Z" fill="#DB0025"/>
<path d="M11.981 8.2998C11.2157 8.2998 10.594 8.92728 10.594 9.69366C10.594 10.46 11.2157 11.0827 11.981 11.0827C12.7462 11.0827 13.3775 10.4648 13.3775 9.69366C13.3775 8.92249 12.7462 8.2998 11.981 8.2998ZM11.981 10.2014C11.7275 10.2014 11.5075 9.98106 11.5075 9.72719C11.5075 9.47333 11.7227 9.2482 11.981 9.2482C12.2392 9.2482 12.4592 9.47333 12.4592 9.72719C12.4592 9.98106 12.2344 10.2014 11.981 10.2014Z" fill="white"/>
<path d="M12.4591 9.72719C12.4591 9.98105 12.2343 10.2014 11.9808 10.2014C11.7273 10.2014 11.5073 9.98105 11.5073 9.72719C11.5073 9.47332 11.7225 9.2482 11.9808 9.2482C12.2391 9.2482 12.4591 9.47332 12.4591 9.72719Z" fill="#DB0025"/>
<path d="M19.303 12.8789C18.5378 12.8789 17.916 13.5016 17.916 14.268C17.916 15.0344 18.5378 15.6667 19.303 15.6667C20.0682 15.6667 20.6995 15.0344 20.6995 14.268C20.6995 13.5016 20.0682 12.8789 19.303 12.8789ZM19.303 14.7853C19.0495 14.7853 18.8295 14.565 18.8295 14.3111C18.8295 14.0573 19.0495 13.8321 19.303 13.8321C19.5565 13.8321 19.7812 14.0573 19.7812 14.3111C19.7812 14.565 19.5565 14.7853 19.303 14.7853Z" fill="white"/>
<path d="M19.7813 14.3111C19.7813 14.565 19.5565 14.7853 19.3031 14.7853C19.0496 14.7853 18.8296 14.565 18.8296 14.3111C18.8296 14.0572 19.0496 13.8321 19.3031 13.8321C19.5565 13.8321 19.7813 14.0572 19.7813 14.3111Z" fill="#DB0025"/>
<path d="M19.303 18.3777C18.5378 18.3777 17.916 19.0052 17.916 19.7716C17.916 20.538 18.5378 21.1655 19.303 21.1655C20.0682 21.1655 20.6995 20.5428 20.6995 19.7716C20.6995 19.0004 20.0682 18.3777 19.303 18.3777ZM19.303 20.2841C19.0495 20.2841 18.8295 20.0638 18.8295 19.8099C18.8295 19.5561 19.0495 19.3309 19.303 19.3309C19.5565 19.3309 19.7812 19.5561 19.7812 19.8099C19.7812 20.0638 19.5565 20.2841 19.303 20.2841Z" fill="white"/>
<path d="M19.7813 19.8099C19.7813 20.0638 19.5565 20.2841 19.3031 20.2841C19.0496 20.2841 18.8296 20.0638 18.8296 19.8099C18.8296 19.5561 19.0496 19.3309 19.3031 19.3309C19.5565 19.3309 19.7813 19.5561 19.7813 19.8099Z" fill="#DB0025"/>
<path d="M4.65859 12.8789C3.88859 12.8789 3.26685 13.5016 3.26685 14.268C3.26685 15.0344 3.88859 15.6667 4.65859 15.6667C5.42859 15.6667 6.05032 15.0344 6.05032 14.268C6.05032 13.5016 5.42859 12.8789 4.65859 12.8789ZM4.65859 14.7853C4.40511 14.7853 4.18511 14.565 4.18511 14.3111C4.18511 14.0573 4.40032 13.8321 4.65859 13.8321C4.91685 13.8321 5.13685 14.0573 5.13685 14.3111C5.13685 14.565 4.91206 14.7853 4.65859 14.7853Z" fill="white"/>
<path d="M5.13704 14.3111C5.13704 14.565 4.91226 14.7853 4.65878 14.7853C4.4053 14.7853 4.1853 14.565 4.1853 14.3111C4.1853 14.0572 4.40052 13.8321 4.65878 13.8321C4.91704 13.8321 5.13704 14.0572 5.13704 14.3111Z" fill="#DB0025"/>
<path d="M4.65859 18.3777C3.88859 18.3777 3.26685 19.0052 3.26685 19.7716C3.26685 20.538 3.88859 21.1655 4.65859 21.1655C5.42859 21.1655 6.05032 20.5428 6.05032 19.7716C6.05032 19.0004 5.42859 18.3777 4.65859 18.3777ZM4.65859 20.2841C4.40511 20.2841 4.18511 20.0638 4.18511 19.8099C4.18511 19.5561 4.40032 19.3309 4.65859 19.3309C4.91685 19.3309 5.13685 19.5561 5.13685 19.8099C5.13685 20.0638 4.91206 20.2841 4.65859 20.2841Z" fill="white"/>
<path d="M5.13704 19.8099C5.13704 20.0638 4.91226 20.2841 4.65878 20.2841C4.4053 20.2841 4.1853 20.0638 4.1853 19.8099C4.1853 19.5561 4.40052 19.3309 4.65878 19.3309C4.91704 19.3309 5.13704 19.5561 5.13704 19.8099Z" fill="#DB0025"/>
</g>
<defs>
<clipPath id="clip0_2031_2521">
<rect width="22" height="22" fill="white" transform="translate(1 1)"/>
</clipPath>
</defs>
</svg>
